<?xml version="1.0" encoding="utf-8"?>
<!-- Generator: Adobe Illustrator 24.1.3, SVG Export Plug-In . SVG Version: 6.00 Build 0)  -->
<svg version="1.1" xmlns="http://www.w3.org/2000/svg" xmlns:xlink="http://www.w3.org/1999/xlink" x="0px" y="0px"
	 viewBox="0 0 155 49" style="enable-background:new 0 0 155 49;" xml:space="preserve">
<style type="text/css">
	.st0{fill:#FFFFFF;stroke:#FFFFFF;stroke-width:0.2;stroke-miterlimit:10;}
	.st1{fill:#A6A6A6;}
	.st2{fill:#FFFFFF;}
	.st3{fill:url(#SVGID_1_);}
	.st4{fill:url(#SVGID_2_);}
	.st5{fill:url(#SVGID_3_);}
	.st6{fill:url(#SVGID_4_);}
	.st7{opacity:0.2;enable-background:new    ;}
	.st8{opacity:0.12;enable-background:new    ;}
	.st9{opacity:0.25;fill:#FFFFFF;enable-background:new    ;}
</style>
<g id="Google">
	<g>
		<path class="st0" d="M37.8,13.3v-6h1.8c0.9,0,1.7,0.3,2.2,0.8c0.6,0.6,0.8,1.3,0.8,2.2c0,0.9-0.3,1.6-0.8,2.2
			c-0.6,0.6-1.3,0.8-2.2,0.8H37.8z M38.6,12.6h1.1c0.7,0,1.2-0.2,1.6-0.6c0.4-0.4,0.6-1,0.6-1.7c0-0.7-0.2-1.3-0.6-1.7
			c-0.4-0.4-1-0.6-1.6-0.6h-1.1V12.6z"/>
		<path class="st0" d="M43.8,13.3v-6h0.8v6H43.8z"/>
		<path class="st0" d="M47.6,13.4c-0.4,0-0.9-0.1-1.3-0.4c-0.4-0.3-0.7-0.7-0.8-1.2l0.7-0.3c0.1,0.3,0.3,0.6,0.5,0.8
			c0.3,0.2,0.6,0.3,0.9,0.3c0.3,0,0.6-0.1,0.9-0.3c0.2-0.2,0.4-0.4,0.4-0.7c0-0.3-0.1-0.6-0.4-0.8c-0.2-0.2-0.6-0.4-1.1-0.5
			c-0.5-0.2-0.9-0.4-1.2-0.6c-0.3-0.3-0.4-0.6-0.4-1c0-0.4,0.2-0.8,0.5-1.1c0.3-0.3,0.8-0.5,1.3-0.5c0.5,0,0.9,0.1,1.2,0.4
			c0.3,0.3,0.5,0.5,0.6,0.8l-0.7,0.3c-0.1-0.2-0.2-0.4-0.4-0.5c-0.2-0.2-0.5-0.2-0.8-0.2c-0.3,0-0.5,0.1-0.8,0.2
			c-0.2,0.2-0.3,0.4-0.3,0.6c0,0.2,0.1,0.4,0.3,0.6c0.2,0.2,0.5,0.3,0.9,0.4c0.3,0.1,0.5,0.2,0.7,0.3c0.2,0.1,0.4,0.2,0.6,0.4
			c0.2,0.1,0.4,0.3,0.5,0.6s0.2,0.5,0.2,0.8c0,0.3-0.1,0.6-0.2,0.8c-0.1,0.2-0.3,0.4-0.5,0.5c-0.2,0.1-0.4,0.2-0.6,0.3
			C48.1,13.4,47.8,13.4,47.6,13.4z"/>
		<path class="st0" d="M51.5,13.3h-0.8v-6h2c0.5,0,0.9,0.2,1.3,0.5c0.4,0.3,0.6,0.8,0.6,1.3c0,0.5-0.2,0.9-0.6,1.3
			c-0.4,0.3-0.8,0.5-1.3,0.5h-1.3V13.3z M51.5,10.1h1.3c0.3,0,0.6-0.1,0.8-0.3c0.2-0.2,0.3-0.5,0.3-0.7s-0.1-0.5-0.3-0.7
			C53.4,8.1,53.1,8,52.8,8h-1.3V10.1z"/>
		<path class="st0" d="M60.5,12.5c-0.6,0.6-1.3,0.9-2.2,0.9c-0.9,0-1.6-0.3-2.2-0.9c-0.6-0.6-0.9-1.3-0.9-2.2s0.3-1.6,0.9-2.2
			c0.6-0.6,1.3-0.9,2.2-0.9c0.9,0,1.6,0.3,2.2,0.9c0.6,0.6,0.9,1.3,0.9,2.2C61.4,11.2,61.1,11.9,60.5,12.5z M56.7,12
			c0.4,0.4,1,0.7,1.6,0.7c0.6,0,1.2-0.2,1.6-0.7c0.4-0.4,0.7-1,0.7-1.7c0-0.7-0.2-1.3-0.7-1.7c-0.4-0.4-1-0.7-1.6-0.7
			c-0.6,0-1.2,0.2-1.6,0.7C56.2,9,56,9.6,56,10.3C56,11,56.2,11.6,56.7,12z"/>
		<path class="st0" d="M62.5,13.3v-6h0.9l2.9,4.7h0l0-1.2V7.3h0.8v6h-0.8l-3.1-4.9h0l0,1.2v3.7H62.5z"/>
		<path class="st0" d="M68.5,13.3v-6h0.8v6H68.5z"/>
		<path class="st0" d="M70.6,13.3v-6h2.2c0.5,0,0.9,0.2,1.2,0.5c0.3,0.3,0.5,0.7,0.5,1.2c0,0.3-0.1,0.5-0.2,0.8
			c-0.1,0.2-0.3,0.4-0.6,0.5v0c0.3,0.1,0.5,0.3,0.7,0.5c0.2,0.2,0.3,0.5,0.3,0.9c0,0.5-0.2,0.9-0.5,1.2c-0.4,0.3-0.8,0.5-1.3,0.5
			H70.6z M71.4,9.9h1.4c0.3,0,0.5-0.1,0.7-0.3c0.2-0.2,0.3-0.4,0.3-0.6c0-0.2-0.1-0.4-0.3-0.6C73.3,8.1,73.1,8,72.8,8h-1.4V9.9z
			 M71.4,12.6h1.6c0.3,0,0.5-0.1,0.7-0.3c0.2-0.2,0.3-0.4,0.3-0.7c0-0.2-0.1-0.5-0.3-0.7c-0.2-0.2-0.4-0.3-0.7-0.3h-1.5V12.6z"/>
		<path class="st0" d="M75.8,13.3v-6h0.8v5.3h2.6v0.7H75.8z"/>
		<path class="st0" d="M83.6,8h-2.7v1.9h2.5v0.7h-2.5v1.9h2.7v0.7h-3.5v-6h3.5V8z"/>
		<path class="st0" d="M88.3,13.4c-0.4,0-0.9-0.1-1.3-0.4c-0.4-0.3-0.7-0.7-0.8-1.2l0.7-0.3c0.1,0.3,0.3,0.6,0.5,0.8
			c0.3,0.2,0.6,0.3,0.9,0.3c0.3,0,0.6-0.1,0.9-0.3c0.2-0.2,0.4-0.4,0.4-0.7c0-0.3-0.1-0.6-0.4-0.8c-0.2-0.2-0.6-0.4-1.1-0.5
			c-0.5-0.2-0.9-0.4-1.2-0.6c-0.3-0.3-0.4-0.6-0.4-1c0-0.4,0.2-0.8,0.5-1.1c0.3-0.3,0.8-0.5,1.3-0.5c0.5,0,0.9,0.1,1.2,0.4
			c0.3,0.3,0.5,0.5,0.6,0.8l-0.7,0.3c-0.1-0.2-0.2-0.4-0.4-0.5c-0.2-0.2-0.5-0.2-0.8-0.2c-0.3,0-0.5,0.1-0.8,0.2
			c-0.2,0.2-0.3,0.4-0.3,0.6c0,0.2,0.1,0.4,0.3,0.6c0.2,0.2,0.5,0.3,0.9,0.4c0.3,0.1,0.5,0.2,0.7,0.3c0.2,0.1,0.4,0.2,0.6,0.4
			c0.2,0.1,0.4,0.3,0.5,0.6c0.1,0.2,0.2,0.5,0.2,0.8c0,0.3-0.1,0.6-0.2,0.8c-0.1,0.2-0.3,0.4-0.5,0.5c-0.2,0.1-0.4,0.2-0.6,0.3
			C88.8,13.4,88.5,13.4,88.3,13.4z"/>
		<path class="st0" d="M93.5,13.4c-0.7,0-1.2-0.2-1.6-0.7c-0.4-0.4-0.6-1-0.6-1.7V7.3H92v3.8c0,0.5,0.1,0.9,0.4,1.2
			c0.2,0.3,0.6,0.4,1.1,0.4c0.5,0,0.8-0.1,1.1-0.4c0.2-0.3,0.4-0.7,0.4-1.2V7.3h0.8v3.8c0,0.7-0.2,1.3-0.6,1.7
			C94.7,13.2,94.2,13.4,93.5,13.4z"/>
		<path class="st0" d="M96.9,13.3v-6h2c0.5,0,0.9,0.2,1.3,0.5c0.4,0.3,0.6,0.8,0.6,1.3c0,0.4-0.1,0.8-0.4,1.1
			c-0.3,0.3-0.6,0.5-1,0.6l0,0l1.7,2.4v0h-0.9l-1.6-2.4h-0.9v2.4H96.9z M97.7,10.1h1.2c0.3,0,0.6-0.1,0.8-0.3
			c0.2-0.2,0.3-0.5,0.3-0.8c0-0.3-0.1-0.5-0.3-0.7C99.6,8.1,99.3,8,99,8h-1.3V10.1z"/>
	</g>
</g>
<g id="Apple">
	<path class="st1" d="M143.3,0H11.7c-0.4,0-0.9,0-1.3,0C10,0,9.6,0,9.3,0C8.4,0,7.6,0.1,6.8,0.2C6,0.4,5.2,0.6,4.5,1
		c-0.7,0.4-1.4,0.9-2,1.4C1.9,3,1.4,3.7,1.1,4.4C0.7,5.2,0.4,5.9,0.3,6.8C0.2,7.6,0.1,8.4,0.1,9.2c0,0.4,0,0.8,0,1.1v28.3
		c0,0.4,0,0.7,0,1.1c0,0.8,0.1,1.6,0.2,2.5c0.1,0.8,0.4,1.6,0.8,2.3c0.4,0.7,0.9,1.4,1.4,2c0.6,0.6,1.2,1.1,2,1.4
		c0.7,0.4,1.5,0.6,2.3,0.8C7.6,48.9,8.4,49,9.3,49c0.4,0,0.7,0,1.1,0h1.3h131.6h1.3c0.4,0,0.8,0,1.1,0c0.8,0,1.6-0.1,2.4-0.2
		c0.8-0.1,1.6-0.4,2.3-0.8c0.7-0.4,1.4-0.9,2-1.4c0.6-0.6,1.1-1.2,1.5-2c0.4-0.7,0.6-1.5,0.8-2.3c0.1-0.8,0.2-1.6,0.2-2.5
		c0-0.4,0-0.7,0-1.1c0-0.4,0-0.9,0-1.3V11.7c0-0.4,0-0.9,0-1.3c0-0.4,0-0.8,0-1.1c0-0.8-0.1-1.6-0.2-2.5c-0.1-0.8-0.4-1.6-0.8-2.3
		c-0.8-1.5-2-2.7-3.4-3.4c-0.7-0.4-1.5-0.6-2.3-0.8c-0.8-0.1-1.6-0.2-2.4-0.2c-0.4,0-0.8,0-1.1,0C144.2,0,143.7,0,143.3,0L143.3,0z"
		/>
	<path d="M10.4,47.9c-0.4,0-0.7,0-1.1,0c-0.8,0-1.5-0.1-2.3-0.2c-0.7-0.1-1.4-0.3-2-0.7c-0.6-0.3-1.2-0.7-1.7-1.2
		c-0.5-0.5-0.9-1.1-1.2-1.7c-0.3-0.6-0.5-1.3-0.7-2c-0.1-0.8-0.2-1.5-0.2-2.3c0-0.3,0-1.1,0-1.1V10.3c0,0,0-0.9,0-1.1
		c0-0.8,0.1-1.5,0.2-2.3c0.1-0.7,0.3-1.4,0.7-2c0.3-0.6,0.7-1.2,1.2-1.7C3.8,2.7,4.3,2.3,5,2c0.6-0.3,1.3-0.5,2-0.7
		c0.8-0.1,1.5-0.2,2.3-0.2l1.1,0h134.2l1.1,0c0.8,0,1.5,0.1,2.3,0.2c0.7,0.1,1.4,0.3,2,0.7c1.3,0.7,2.3,1.7,3,3
		c0.3,0.6,0.5,1.3,0.7,2c0.1,0.8,0.2,1.5,0.2,2.3v1.1c0,0.5,0,0.9,0,1.3v25.6c0,0.4,0,0.9,0,1.3v1.1c0,0.8-0.1,1.5-0.2,2.3
		c-0.1,0.7-0.3,1.4-0.7,2c-0.3,0.6-0.7,1.2-1.2,1.7c-0.5,0.5-1.1,0.9-1.7,1.3c-0.6,0.3-1.3,0.6-2,0.7c-0.8,0.1-1.5,0.2-2.3,0.2
		c-0.4,0-0.7,0-1.1,0h-1.3L10.4,47.9z"/>
	<g>
		<path class="st2" d="M30.4,24.9c0-2.1,1.1-4,2.9-5.1c-1.1-1.6-2.9-2.6-4.9-2.6c-2.1-0.2-4,1.2-5.1,1.2c-1.1,0-2.7-1.2-4.4-1.2
			c-2.3,0.1-4.4,1.3-5.5,3.3C11,24.6,12.8,30.7,15.1,34c1.1,1.6,2.5,3.4,4.2,3.4c1.7-0.1,2.3-1.1,4.4-1.1c2,0,2.6,1.1,4.4,1
			c1.8,0,3-1.6,4.1-3.3c0.8-1.2,1.4-2.4,1.9-3.8C31.8,29.3,30.4,27.2,30.4,24.9z"/>
		<path class="st2" d="M27,15c1-1.2,1.5-2.7,1.4-4.3c-1.5,0.2-2.9,0.9-3.9,2c-1,1.1-1.5,2.6-1.4,4.1C24.6,16.8,26.1,16.2,27,15z"/>
		<path class="st2" d="M43.7,18v-6.3h-2.3v-1h5.7v1h-2.3V18H43.7z"/>
		<path class="st2" d="M52.4,16.5c-0.3,1-1.3,1.7-2.4,1.6c-1.4,0-2.5-1.1-2.6-2.4c0-0.1,0-0.3,0-0.4c-0.2-1.4,0.8-2.7,2.2-2.9
			c0.1,0,0.2,0,0.4,0c1.5,0,2.5,1,2.5,2.8v0.4h-3.9v0.1c-0.1,0.8,0.5,1.5,1.3,1.6c0,0,0.1,0,0.1,0c0.5,0.1,1.1-0.2,1.3-0.7
			L52.4,16.5z M48.6,14.7h2.8c0.1-0.7-0.5-1.4-1.2-1.4c0,0-0.1,0-0.1,0C49.2,13.3,48.6,13.9,48.6,14.7
			C48.6,14.7,48.6,14.7,48.6,14.7L48.6,14.7z M49.4,11.6l1.3-1.7h1.3l-1.4,1.7H49.4z"/>
		<path class="st2" d="M54,10.3h1.1V18H54L54,10.3z"/>
		<path class="st2" d="M61.5,16.5c-0.3,1-1.3,1.7-2.4,1.6c-1.4,0-2.5-1.1-2.6-2.4c0-0.1,0-0.3,0-0.4c-0.2-1.4,0.8-2.7,2.2-2.9
			c0.1,0,0.2,0,0.4,0c1.5,0,2.5,1,2.5,2.8v0.4h-3.9v0.1c-0.1,0.8,0.5,1.5,1.3,1.6c0,0,0.1,0,0.1,0c0.5,0.1,1.1-0.2,1.3-0.7
			L61.5,16.5z M57.7,14.7h2.8c0.1-0.7-0.5-1.4-1.2-1.4c0,0-0.1,0-0.1,0C58.3,13.3,57.7,13.9,57.7,14.7
			C57.7,14.7,57.7,14.7,57.7,14.7z M58.5,11.6l1.3-1.7H61l-1.4,1.7H58.5z"/>
		<path class="st2" d="M66.7,14.3c-0.1-0.6-0.7-1-1.3-0.9c-0.9,0-1.5,0.7-1.5,1.9c0,1.2,0.6,1.9,1.5,1.9c0.6,0.1,1.2-0.3,1.3-0.9
			h1.1c-0.1,1.2-1.2,2-2.4,1.9c-1.4,0-2.6-1.1-2.6-2.4c0-0.1,0-0.3,0-0.4c-0.2-1.4,0.8-2.6,2.2-2.8c0.1,0,0.3,0,0.4,0
			c1.2-0.1,2.2,0.7,2.4,1.9L66.7,14.3z"/>
		<path class="st2" d="M69.2,10.3h1.1v3h0.1c0.3-0.7,1-1,1.7-1c1-0.1,1.9,0.7,1.9,1.7c0,0.1,0,0.2,0,0.3V18h-1.1v-3.3
			c0-0.9-0.4-1.3-1.2-1.3c-0.7-0.1-1.3,0.5-1.4,1.2c0,0.1,0,0.1,0,0.2V18h-1.1L69.2,10.3z"/>
		<path class="st2" d="M75.3,16.4c0-1,0.7-1.6,2.1-1.6l1.5-0.1v-0.5c0-0.6-0.4-0.9-1.1-0.9c-0.6,0-1,0.2-1.1,0.6h-1.1
			c0.1-0.9,1-1.6,2.3-1.6c1.4,0,2.2,0.7,2.2,1.9V18h-1v-0.8h-0.1c-0.4,0.6-1,0.9-1.7,0.9c-0.9,0.1-1.7-0.6-1.8-1.5
			C75.3,16.6,75.3,16.5,75.3,16.4L75.3,16.4z M78.8,16v-0.5l-1.3,0.1c-0.8,0.1-1.1,0.3-1.1,0.8c0,0.5,0.4,0.8,1,0.8
			C78.1,17.2,78.7,16.7,78.8,16C78.8,16,78.8,16,78.8,16z"/>
		<path class="st2" d="M81.6,12.5h1v0.8h0.1c0.2-0.6,0.8-1,1.5-0.9c0.2,0,0.3,0,0.5,0v1.1c-0.2,0-0.4-0.1-0.6-0.1
			c-0.7-0.1-1.3,0.5-1.4,1.2c0,0,0,0.1,0,0.1V18h-1.1V12.5z"/>
		<path class="st2" d="M85.7,18.6h1.1c0.1,0.4,0.6,0.7,1.3,0.7c0.9,0,1.4-0.4,1.4-1.2V17h-0.1c-0.3,0.6-1,1-1.7,0.9
			c-1.4,0-2.3-1.1-2.3-2.7c0-1.7,0.9-2.8,2.3-2.8c0.7,0,1.4,0.3,1.7,1h0.1v-0.9h1V18c0,1.3-1,2.1-2.5,2.1
			C86.7,20.1,85.8,19.5,85.7,18.6z M89.6,15.2c0-1.1-0.6-1.8-1.5-1.8s-1.5,0.7-1.5,1.8s0.5,1.8,1.5,1.8S89.6,16.3,89.6,15.2z"/>
		<path class="st2" d="M97,16.5c-0.3,1-1.3,1.7-2.4,1.6c-1.4,0-2.5-1.1-2.6-2.4c0-0.1,0-0.3,0-0.4c-0.2-1.4,0.8-2.7,2.2-2.9
			c0.1,0,0.2,0,0.4,0c1.5,0,2.5,1,2.5,2.8v0.4h-3.9v0.1c-0.1,0.8,0.5,1.5,1.3,1.6c0,0,0.1,0,0.1,0c0.5,0.1,1.1-0.2,1.3-0.7H97z
			 M93.2,14.7H96c0.1-0.7-0.5-1.4-1.2-1.4c0,0-0.1,0-0.1,0C93.9,13.3,93.2,13.9,93.2,14.7C93.2,14.7,93.2,14.7,93.2,14.7z"/>
		<path class="st2" d="M98.6,12.5h1v0.8h0.1c0.2-0.6,0.8-1,1.5-0.9c0.2,0,0.3,0,0.5,0v1.1c-0.2,0-0.4-0.1-0.6-0.1
			c-0.7-0.1-1.3,0.5-1.4,1.2c0,0,0,0.1,0,0.1V18h-1.1V12.5z"/>
		<path class="st2" d="M105.6,15.2c0-1.7,0.9-2.8,2.3-2.8c0.7,0,1.4,0.3,1.7,1h0.1v-3h1.1V18h-1v-0.9h-0.1c-0.4,0.6-1,1-1.7,1
			C106.5,18.1,105.6,17,105.6,15.2z M106.7,15.2c0,1.2,0.6,1.9,1.5,1.9c0.9,0,1.5-0.7,1.5-1.9s-0.6-1.9-1.5-1.9
			C107.3,13.4,106.7,14.1,106.7,15.2z"/>
		<path class="st2" d="M112.2,16.4c0-1,0.7-1.6,2.1-1.6l1.5-0.1v-0.5c0-0.6-0.4-0.9-1.1-0.9c-0.6,0-1,0.2-1.1,0.6h-1.1
			c0.1-0.9,1-1.6,2.3-1.6c1.4,0,2.2,0.7,2.2,1.9V18h-1v-0.8h-0.1c-0.4,0.6-1,0.9-1.7,0.9c-0.9,0.1-1.7-0.6-1.8-1.5
			C112.2,16.6,112.2,16.5,112.2,16.4z M115.8,16v-0.5l-1.3,0.1c-0.8,0.1-1.1,0.3-1.1,0.8c0,0.5,0.4,0.8,1,0.8
			C115,17.2,115.7,16.7,115.8,16C115.8,16,115.8,16,115.8,16z"/>
		<path class="st2" d="M118.5,12.5h1v0.9h0.1c0.3-0.6,0.9-1,1.6-1c1-0.1,1.8,0.7,1.9,1.7c0,0.1,0,0.3,0,0.4V18h-1.1v-3.3
			c0-0.9-0.4-1.3-1.2-1.3c-0.7,0-1.3,0.5-1.3,1.2c0,0.1,0,0.1,0,0.2V18h-1.1L118.5,12.5z"/>
		<path class="st2" d="M126.9,12.4c1.2,0,2.1,0.6,2.2,1.6h-1c-0.1-0.4-0.5-0.7-1.1-0.7s-1.1,0.3-1.1,0.7c0,0.3,0.3,0.5,0.9,0.7
			l0.9,0.2c1,0.2,1.5,0.7,1.5,1.5c0,1-1,1.7-2.3,1.7s-2.2-0.6-2.3-1.6h1.1c0.2,0.5,0.7,0.8,1.2,0.7c0.7,0,1.2-0.3,1.2-0.7
			c0-0.3-0.3-0.5-0.8-0.7l-1-0.2c-1-0.2-1.5-0.7-1.5-1.5C124.8,13.1,125.7,12.4,126.9,12.4z"/>
		<path class="st2" d="M43.2,22.1h2.3v15.2h-2.3V22.1z"/>
		<path class="st2" d="M48.2,27.7l1.2-5.6h2.2l-1.5,5.6H48.2z"/>
		<path class="st2" d="M60.2,33.2h-5.8L53,37.3h-2.5l5.5-15.2h2.6l5.5,15.2h-2.5L60.2,33.2z M55,31.3h4.6l-2.3-6.7h-0.1L55,31.3z"/>
		<path class="st2" d="M76,31.8c0,3.4-1.8,5.7-4.6,5.7c-1.4,0.1-2.8-0.7-3.5-1.9h-0.1V41h-2.3V26.2h2.2v1.8h0c0.7-1.3,2.1-2,3.5-2
			C74.1,26.1,76,28.4,76,31.8z M73.6,31.8c0-2.2-1.2-3.7-2.9-3.7c-1.7,0-2.9,1.5-2.9,3.7c0,2.2,1.2,3.7,2.9,3.7
			C72.5,35.5,73.6,34.1,73.6,31.8L73.6,31.8z"/>
		<path class="st2" d="M88.2,31.8c0,3.4-1.8,5.7-4.6,5.7c-1.4,0.1-2.8-0.7-3.5-1.9H80V41h-2.3V26.2h2.2v1.8h0c0.7-1.3,2.1-2,3.5-2
			C86.3,26.1,88.2,28.4,88.2,31.8z M85.8,31.8c0-2.2-1.2-3.7-2.9-3.7c-1.7,0-2.9,1.5-2.9,3.7c0,2.2,1.2,3.7,2.9,3.7
			C84.7,35.5,85.8,34.1,85.8,31.8z"/>
		<path class="st2" d="M96.2,33.1c0.2,1.5,1.6,2.5,3.6,2.5c1.9,0,3.3-1,3.3-2.3c0-1.2-0.8-1.9-2.8-2.4l-2-0.5
			c-2.8-0.7-4.1-2-4.1-4.1c0-2.6,2.3-4.4,5.5-4.4c3.2,0,5.4,1.8,5.5,4.4H103c-0.1-1.5-1.4-2.4-3.2-2.4s-3.1,0.9-3.1,2.3
			c0,1.1,0.8,1.7,2.8,2.2l1.7,0.4c3.1,0.7,4.4,2,4.4,4.2c0,2.8-2.3,4.6-5.9,4.6c-3.4,0-5.6-1.7-5.8-4.5L96.2,33.1z"/>
		<path class="st2" d="M110.5,23.6v2.6h2.1V28h-2.1v6.1c0,0.9,0.4,1.4,1.3,1.4c0.3,0,0.5,0,0.7-0.1v1.8c-0.4,0.1-0.8,0.1-1.3,0.1
			c-2.2,0-3.1-0.8-3.1-3V28h-1.6v-1.8h1.6v-2.6L110.5,23.6z"/>
		<path class="st2" d="M113.8,31.8c0-3.5,2.1-5.7,5.3-5.7c3.2,0,5.3,2.2,5.3,5.7s-2,5.7-5.3,5.7C115.8,37.5,113.8,35.3,113.8,31.8z
			 M122,31.8c0-2.4-1.1-3.8-2.9-3.8c-1.8,0-2.9,1.4-2.9,3.8c0,2.4,1.1,3.8,2.9,3.8S122,34.2,122,31.8L122,31.8z"/>
		<path class="st2" d="M126.2,26.2h2.2v1.9h0.1c0.3-1.2,1.4-2.1,2.7-2c0.3,0,0.5,0,0.8,0.1v2.1c-0.3-0.1-0.7-0.1-1-0.1
			c-1.3-0.1-2.3,0.9-2.4,2.2c0,0.1,0,0.2,0,0.4v6.6h-2.3L126.2,26.2z"/>
		<path class="st2" d="M142.4,34.1c-0.3,2-2.3,3.4-4.8,3.4c-3.2,0-5.2-2.2-5.2-5.6c0-3.5,2-5.7,5.1-5.7c3.1,0,5,2.1,5,5.5v0.8h-7.8
			v0.1c-0.1,1.6,1,3,2.6,3.1c0.1,0,0.2,0,0.4,0c1.1,0.1,2.1-0.5,2.6-1.6L142.4,34.1z M134.7,30.8h5.5c0.1-1.5-1-2.7-2.5-2.8
			c-0.1,0-0.1,0-0.2,0C135.9,27.9,134.7,29.2,134.7,30.8C134.7,30.7,134.7,30.8,134.7,30.8z"/>
	</g>
</g>
</svg>
