<svg width="72" height="72" viewBox="0 0 72 72" fill="none" xmlns="http://www.w3.org/2000/svg">
<path d="M35.994 26.988C31.464 26.988 27.804 23.328 27.804 18.798" stroke="#90471C" stroke-width="3" stroke-linecap="round" stroke-linejoin="round"/>
<path d="M27.801 18.7981C27.801 15.2281 29.421 12.6541 32.691 12.6541" stroke="#90471C" stroke-width="3" stroke-linecap="round" stroke-linejoin="round"/>
<path d="M35.994 26.988C40.524 26.988 44.184 23.328 44.184 18.798" stroke="#90471C" stroke-width="3" stroke-linecap="round" stroke-linejoin="round"/>
<path d="M44.19 18.7981C44.19 15.2281 42.51 12.6541 39.24 12.6541" stroke="#90471C" stroke-width="3" stroke-linecap="round" stroke-linejoin="round"/>
<path d="M39.273 12.657C37.623 12.657 36.693 13.167 35.973 13.167C35.253 13.167 34.323 12.627 32.673 12.627" stroke="#90471C" stroke-width="3" stroke-linecap="round" stroke-linejoin="round"/>
<path d="M36 13.17V10.17C36 7.82997 37.86 5.96997 40.2 5.96997" stroke="#90471C" stroke-width="3" stroke-linecap="round" stroke-linejoin="round"/>
<path d="M27.825 19.1159C18.6 21.6599 12 28.3859 12 36.3389V36.5189C12 40.4609 14.61 44.0489 18.39 44.8169C21.3 45.3869 24 44.3369 25.8 42.3869C27 41.0669 28.98 41.1569 30.21 42.4469C31.662 43.9769 33.69 44.9369 35.94 44.9369C38.19 44.9369 40.23 43.9769 41.7 42.4169C42.9 41.0969 44.88 41.0069 46.11 42.3269C47.88 44.2469 50.58 45.2969 53.52 44.7269C57.3 43.9769 59.91 40.3469 59.91 36.4169V36.2069C59.91 28.2569 53.31 21.5429 44.091 18.9569" stroke="#90471C" stroke-width="3" stroke-linecap="round" stroke-linejoin="round"/>
<path d="M53.565 44.8469L51.555 57.9059C51.105 60.8159 48.585 62.9759 45.615 62.9759H26.31C23.34 62.9759 20.82 60.7859 20.37 57.8759L18.36 44.8169" stroke="#90471C" stroke-width="3" stroke-linecap="round" stroke-linejoin="round"/>
</svg>
