<svg width="72" height="72" viewBox="0 0 72 72" fill="none" xmlns="http://www.w3.org/2000/svg">
<path d="M45.576 63H8.76C7.2 63 5.97 61.89 5.97 60.54V23.991C5.97 22.311 7.29 20.991 8.97 20.991H41.97C43.62 20.991 44.97 22.311 44.97 23.991V29.991" stroke="#90471C" stroke-width="3" stroke-linecap="round" stroke-linejoin="round"/>
<path d="M60 18L57 30" stroke="#90471C" stroke-width="3" stroke-linecap="round" stroke-linejoin="round"/>
<path d="M42.321 29.9999H61.995C63.285 29.9999 64.425 30.8099 64.815 32.0399L65.805 35.0399C66.435 36.9599 64.995 38.9699 62.955 38.9699H41.28C39.21 38.9699 37.77 36.9599 38.43 35.0099L39.42 32.0099C39.81 30.7799 40.95 29.9399 42.24 29.9399L42.321 29.9999Z" stroke="#90471C" stroke-width="3" stroke-linecap="round" stroke-linejoin="round"/>
<path d="M33 9H18C16.32 9 15 10.32 15 12V21H36V12C36 10.344 34.65 9 33 9Z" stroke="#90471C" stroke-width="3" stroke-linecap="round" stroke-linejoin="round"/>
<path d="M64.08 38.778L61.41 60.348C61.2 61.848 59.94 62.958 58.41 62.958H45.54C44.01 62.958 42.72 61.818 42.54 60.318L39.84 38.598" stroke="#90471C" stroke-width="3" stroke-linecap="round" stroke-linejoin="round"/>
</svg>
