<svg id="Composant_1_1" data-name="Composant 1 – 1" xmlns="http://www.w3.org/2000/svg" xmlns:xlink="http://www.w3.org/1999/xlink" width="130" height="130.435" viewBox="0 0 150 151.435">
  <defs>
    <clipPath id="clip-path">
      <rect id="Rectangle_46" data-name="Rectangle 46" width="58.85" height="25.894" fill="none"/>
    </clipPath>
    <clipPath id="clip-path-2">
      <rect id="Rectangle_45" data-name="Rectangle 45" width="58.85" height="25.895" fill="none"/>
    </clipPath>
    <clipPath id="clip-path-3">
      <rect id="Rectangle_44" data-name="Rectangle 44" width="56.344" height="22.279" fill="none"/>
    </clipPath>
    <clipPath id="clip-path-4">
      <rect id="Rectangle_46-2" data-name="Rectangle 46" width="91.15" height="40.107" fill="none"/>
    </clipPath>
    <clipPath id="clip-path-6">
      <rect id="Rectangle_44-2" data-name="Rectangle 44" width="87.268" height="34.507" fill="none"/>
    </clipPath>
  </defs>
  <path id="Tracé_369" data-name="Tracé 369" d="M666.593,931.449c9.445-27.718-9.222-37.576,0-57.049" transform="translate(-607.753 -781.918)" fill="none" stroke="#2b8825" stroke-linecap="round" stroke-width="3"/>
  <g id="Groupe_301" data-name="Groupe 301" transform="translate(0 82.875)">
    <g id="Groupe_259" data-name="Groupe 259" clip-path="url(#clip-path)">
      <g id="Groupe_258" data-name="Groupe 258" transform="translate(0 0)">
        <g id="Groupe_257" data-name="Groupe 257" clip-path="url(#clip-path-2)">
          <path id="Tracé_301" data-name="Tracé 301" d="M58.207,8.935c-4.723-3.584-16.288-14.2-33.382-3.689-9.886,6.077-17.662,7.282-22.463,7.217a1.617,1.617,0,0,0-1.024,2.912C7.645,20.19,19.7,27.662,30.513,24.5,46.435,19.837,46.785,7.032,58.207,8.935" transform="translate(-0.021 -0.022)" fill="#2b8825"/>
          <g id="Groupe_256" data-name="Groupe 256" transform="translate(0.331 3.494)" opacity="0.3">
            <g id="Groupe_255" data-name="Groupe 255">
              <g id="Groupe_254" data-name="Groupe 254" clip-path="url(#clip-path-3)">
                <path id="Tracé_302" data-name="Tracé 302" d="M56.543,7.955C54.827,6.77,50.261,5.64,44.281,5.878l-.215-.109A18.538,18.538,0,0,0,32.373,3.82a11.27,11.27,0,0,1-4.066-.037.342.342,0,0,0-.406.237.333.333,0,0,0,.237.405,11.973,11.973,0,0,0,4.3.052A17.943,17.943,0,0,1,42.815,5.906c-.063.021-.093.088-.153.113A43.9,43.9,0,0,0,33.283,7.8V7.771l-.453.142c-.043.016-4.363,1.316-13.433-.011a.319.319,0,0,0-.377.279.333.333,0,0,0,.282.374,46.542,46.542,0,0,0,10.423.515,45.831,45.831,0,0,0-6.85,3.33c-.5.3-.98.538-1.467.793-1.259,0-2.266.056-3.144.108-2.81.142-4.092.232-8.047-1.754a.318.318,0,0,0-.448.147.33.33,0,0,0,.147.443c4.121,2.069,5.552,1.98,8.386,1.828.509-.03,1.084-.058,1.7-.08C8.988,18.822.963,12.884.876,12.817a.326.326,0,0,0-.466.063.331.331,0,0,0,.061.463A19.134,19.134,0,0,0,11.236,16.53a22.438,22.438,0,0,0,9.839-2.453c-1.6,6.741-8.228,7.736-8.519,7.778a.328.328,0,0,0-.285.368.334.334,0,0,0,.33.29.146.146,0,0,0,.045,0c.077-.011,7.754-1.128,9.2-8.832.458-.242.9-.426,1.37-.708a44.561,44.561,0,0,1,9.338-4.181C32.364,11.1,31.3,20.182,26.163,25.315a.339.339,0,0,0,0,.474.335.335,0,0,0,.235.095.33.33,0,0,0,.235-.095c5.712-5.718,6.518-15.7,6.611-17.246a43.948,43.948,0,0,1,8.305-1.691c-1.254,1.47-1.585,4.22-1.891,7.13a23.39,23.39,0,0,1-1.338,6.725.331.331,0,0,0,.167.437.32.32,0,0,0,.137.032.334.334,0,0,0,.3-.195,23.9,23.9,0,0,0,1.394-6.932c.359-3.4.7-6.385,2.393-7.322C49.292,6.21,54.425,7.3,56.165,8.5a.341.341,0,0,0,.463-.084.336.336,0,0,0-.084-.463" transform="translate(-0.342 -3.605)" fill="#fff"/>
              </g>
            </g>
          </g>
          <path id="Tracé_303" data-name="Tracé 303" d="M25.047,25.894C15.622,25.894,6.2,19.917.913,15.882a2.281,2.281,0,0,1,1.4-4.1,2.863,2.863,0,0,1,.376,0c4.722,0,12.238-1.265,21.764-7.116C40.888-5.444,52.2,3.4,57.637,7.649c.345.268.661.517.951.738a.66.66,0,0,1,.207.79.667.667,0,0,1-.716.39c-5.58-.89-8.282,1.8-12,5.562-3.381,3.428-7.589,7.695-15.4,9.981a20.02,20.02,0,0,1-5.633.784M2.315,13.106a.953.953,0,0,0-.932.647.934.934,0,0,0,.337,1.075c6.144,4.688,18.034,12.082,28.586,9.007,7.48-2.187,11.383-6.147,14.827-9.639C48.348,10.936,51.182,8.06,56,8.06,50.534,3.836,40.018-3.349,25.152,5.79c-9.786,6.015-17.56,7.316-22.461,7.316Z" transform="translate(0 0)" fill="#047774"/>
        </g>
      </g>
    </g>
  </g>
  <g id="Groupe_302" data-name="Groupe 302" transform="translate(58.85 78.371)">
    <g id="Groupe_259-2" data-name="Groupe 259" clip-path="url(#clip-path-4)">
      <g id="Groupe_258-2" data-name="Groupe 258" transform="translate(0 -0.001)">
        <g id="Groupe_257-2" data-name="Groupe 257" clip-path="url(#clip-path-4)">
          <path id="Tracé_301-2" data-name="Tracé 301" d="M.684,13.443C8,7.891,25.911-8.548,52.387,7.729,67.7,17.141,79.744,19.007,87.179,18.907a2.5,2.5,0,0,1,1.587,4.51C79,30.874,60.327,42.447,43.577,37.546c-24.661-7.218-25.2-27.051-42.893-24.1" transform="translate(0.346 0.363)" fill="#2b8825"/>
          <g id="Groupe_256-2" data-name="Groupe 256" transform="translate(3.369 5.412)" opacity="0.3">
            <g id="Groupe_255-2" data-name="Groupe 255">
              <g id="Groupe_254-2" data-name="Groupe 254" clip-path="url(#clip-path-6)">
                <path id="Tracé_302-2" data-name="Tracé 302" d="M.562,10.343c2.659-1.836,9.731-3.585,18.993-3.217l.333-.168C27.924,2.9,33.491,3.457,38,3.939a17.456,17.456,0,0,0,6.3-.057.529.529,0,0,1,.629.368.516.516,0,0,1-.368.627,18.545,18.545,0,0,1-6.665.081c-4.067-.423-9.072-.946-16.067,2.211.1.033.144.137.237.176A67.986,67.986,0,0,1,36.589,10.1l0-.044.7.221c.066.024,6.758,2.039,20.806-.017a.5.5,0,0,1,.584.432.516.516,0,0,1-.437.579,72.087,72.087,0,0,1-16.144.8,70.985,70.985,0,0,1,10.609,5.158c.77.462,1.518.833,2.273,1.228,1.95.006,3.51.087,4.87.167,4.352.221,6.338.359,12.464-2.717a.493.493,0,0,1,.694.228.51.51,0,0,1-.228.686c-6.383,3.205-8.6,3.067-12.988,2.831-.788-.047-1.678-.09-2.632-.125,17.058,7.647,29.488-1.549,29.623-1.654a.505.505,0,0,1,.722.1.512.512,0,0,1-.095.718,29.636,29.636,0,0,1-16.674,4.936,34.753,34.753,0,0,1-15.239-3.8C57.97,30.265,68.242,31.807,68.692,31.871a.508.508,0,0,1,.441.57.518.518,0,0,1-.51.449.226.226,0,0,1-.069-.008C68.435,32.866,56.544,31.136,54.3,19.2c-.71-.375-1.4-.661-2.121-1.1a69.018,69.018,0,0,0-14.462-6.476c.3,3.576,1.947,17.648,9.9,25.6a.525.525,0,0,1,0,.734.518.518,0,0,1-.363.147.511.511,0,0,1-.363-.147c-8.846-8.857-10.1-24.319-10.24-26.712a68.068,68.068,0,0,0-12.864-2.62c1.943,2.277,2.454,6.536,2.929,11.043.392,3.727.8,7.594,2.073,10.417a.512.512,0,0,1-.258.677.5.5,0,0,1-.212.05.517.517,0,0,1-.468-.3c-1.342-2.978-1.755-6.926-2.159-10.736-.555-5.268-1.078-9.89-3.706-11.34-10.192-.8-18.142.887-20.836,2.75a.529.529,0,0,1-.718-.131.52.52,0,0,1,.131-.718" transform="translate(-0.342 -3.605)" fill="#fff"/>
              </g>
            </g>
          </g>
          <path id="Tracé_303-2" data-name="Tracé 303" d="M52.356,40.106c14.6,0,29.192-9.258,37.379-15.507a3.533,3.533,0,0,0-2.175-6.355,4.435,4.435,0,0,0-.582,0c-7.314,0-18.955-1.959-33.709-11.022C27.821-8.432,10.3,5.265,1.879,11.847c-.534.416-1.024.8-1.473,1.142a1.022,1.022,0,0,0-.321,1.223,1.032,1.032,0,0,0,1.109.6c8.642-1.378,12.828,2.782,18.588,8.615,5.236,5.31,11.754,11.918,23.849,15.459a31.008,31.008,0,0,0,8.725,1.214M87.565,20.3a1.476,1.476,0,0,1,1.444,1,1.446,1.446,0,0,1-.522,1.665C78.971,30.228,60.554,41.68,44.211,36.917,32.626,33.53,26.581,27.4,21.246,21.988c-4.979-5.05-9.369-9.5-16.837-9.5C12.88,5.942,29.168-5.187,52.193,8.968,67.35,18.284,79.391,20.3,86.981,20.3Z" transform="translate(0 0.001)" fill="#047774"/>
        </g>
      </g>
    </g>
  </g>
  <g id="Groupe_303" data-name="Groupe 303" transform="matrix(0.259, -0.966, 0.966, 0.259, 44.885, 88.044)">
    <g id="Groupe_259-3" data-name="Groupe 259" clip-path="url(#clip-path-4)">
      <g id="Groupe_258-3" data-name="Groupe 258" transform="translate(0 -0.001)">
        <g id="Groupe_257-3" data-name="Groupe 257" clip-path="url(#clip-path-4)">
          <path id="Tracé_301-3" data-name="Tracé 301" d="M0,12.72C7.315,7.168,25.227-9.271,51.7,7.006,67.016,16.418,79.06,18.284,86.5,18.184a2.5,2.5,0,0,1,1.587,4.51c-9.77,7.458-28.438,19.031-45.189,14.129C18.232,29.6,17.69,9.771,0,12.72" transform="translate(1.03 1.086)" fill="#2b8825"/>
          <g id="Groupe_256-3" data-name="Groupe 256" transform="translate(3.369 5.412)" opacity="0.3">
            <g id="Groupe_255-3" data-name="Groupe 255">
              <g id="Groupe_254-3" data-name="Groupe 254" clip-path="url(#clip-path-6)">
                <path id="Tracé_302-3" data-name="Tracé 302" d="M.221,6.738C2.879,4.9,9.951,3.154,19.214,3.521l.333-.168c8.036-4.062,13.6-3.5,18.11-3.019a17.456,17.456,0,0,0,6.3-.057.529.529,0,0,1,.629.368.516.516,0,0,1-.368.627,18.545,18.545,0,0,1-6.665.081C33.484.93,28.479.408,21.483,3.565c.1.033.144.137.237.176A67.986,67.986,0,0,1,36.247,6.5l0-.044.7.221c.066.024,6.758,2.039,20.806-.017a.5.5,0,0,1,.584.432.516.516,0,0,1-.437.579,72.087,72.087,0,0,1-16.144.8,70.985,70.985,0,0,1,10.609,5.158c.77.462,1.518.833,2.273,1.228,1.95.006,3.51.087,4.87.167,4.352.221,6.338.359,12.464-2.717a.493.493,0,0,1,.694.228.51.51,0,0,1-.228.686c-6.383,3.205-8.6,3.067-12.988,2.831-.788-.047-1.678-.09-2.632-.125,17.058,7.647,29.488-1.549,29.623-1.654a.505.505,0,0,1,.722.1.512.512,0,0,1-.095.718,29.636,29.636,0,0,1-16.674,4.936,34.753,34.753,0,0,1-15.239-3.8C57.629,26.661,67.9,28.2,68.35,28.267a.508.508,0,0,1,.441.57.518.518,0,0,1-.51.449.226.226,0,0,1-.069-.008C68.094,29.262,56.2,27.531,53.957,15.6c-.71-.375-1.4-.661-2.121-1.1A69.018,69.018,0,0,0,37.373,8.028c.3,3.576,1.947,17.648,9.9,25.6a.525.525,0,0,1,0,.734.518.518,0,0,1-.363.147.511.511,0,0,1-.363-.147C37.7,25.5,36.453,10.041,36.309,7.648a68.068,68.068,0,0,0-12.864-2.62c1.943,2.277,2.454,6.536,2.929,11.043.392,3.727.8,7.594,2.073,10.417a.512.512,0,0,1-.258.677.5.5,0,0,1-.212.05.517.517,0,0,1-.468-.3c-1.342-2.978-1.755-6.926-2.159-10.736-.555-5.268-1.078-9.89-3.706-11.34C11.452,4.036,3.5,5.724.808,7.587A.529.529,0,0,1,.09,7.456a.52.52,0,0,1,.131-.718" transform="translate(0 -0.001)" fill="#fff"/>
              </g>
            </g>
          </g>
          <path id="Tracé_303-3" data-name="Tracé 303" d="M52.356,40.105c14.6,0,29.192-9.258,37.379-15.507a3.533,3.533,0,0,0-2.175-6.355,4.435,4.435,0,0,0-.582,0c-7.314,0-18.955-1.959-33.709-11.022C27.821-8.432,10.3,5.264,1.879,11.847c-.534.416-1.024.8-1.473,1.142a1.022,1.022,0,0,0-.321,1.223,1.032,1.032,0,0,0,1.109.6c8.642-1.378,12.828,2.782,18.588,8.615,5.236,5.31,11.754,11.918,23.849,15.459a31.008,31.008,0,0,0,8.725,1.214M87.565,20.3a1.476,1.476,0,0,1,1.444,1,1.446,1.446,0,0,1-.522,1.665C78.971,30.228,60.554,41.68,44.211,36.917,32.626,33.53,26.581,27.4,21.246,21.988c-4.979-5.05-9.369-9.5-16.837-9.5,8.471-6.542,24.759-17.67,47.784-3.516C67.35,18.284,79.391,20.3,86.981,20.3Z" transform="translate(0.001 0.001)" fill="#047774"/>
        </g>
      </g>
    </g>
  </g>
</svg>
