<?xml version="1.0" encoding="utf-8"?>
<!-- Generator: Adobe Illustrator 24.1.3, SVG Export Plug-In . SVG Version: 6.00 Build 0)  -->
<svg version="1.1" id="Calque_1" xmlns="http://www.w3.org/2000/svg" xmlns:xlink="http://www.w3.org/1999/xlink" x="0px" y="0px"
	 viewBox="0 0 126 37.33" style="enable-background:new 0 0 126 37.33;" xml:space="preserve">
<style type="text/css">
	.st0{fill:#A6A6A6;}
	.st1{fill:#FFFFFF;}
	.st2{fill:url(#SVGID_1_);}
	.st3{fill:url(#SVGID_2_);}
	.st4{fill:url(#SVGID_3_);}
	.st5{fill:url(#SVGID_4_);}
	.st6{opacity:0.2;enable-background:new    ;}
	.st7{opacity:0.12;enable-background:new    ;}
	.st8{opacity:0.25;fill:#FFFFFF;enable-background:new    ;}
	.st9{fill:#FFFFFF;stroke:#FFFFFF;stroke-width:0.2;stroke-miterlimit:10;}
</style>
<g>
	<g>
		<path d="M121.4,37.55H4.74c-2.57,0-4.67-2.1-4.67-4.67v-28c0-2.57,2.1-4.67,4.67-4.67H121.4c2.57,0,4.67,2.1,4.67,4.67v28
			C126.07,35.45,123.97,37.55,121.4,37.55z"/>
	</g>
	<g>
		<g>
			<path class="st0" d="M121.4,0.96c2.16,0,3.92,1.76,3.92,3.92v28c0,2.16-1.76,3.92-3.92,3.92H4.74c-2.16,0-3.92-1.76-3.92-3.92
				v-28c0-2.16,1.76-3.92,3.92-3.92H121.4 M121.4,0.21H4.74c-2.57,0-4.67,2.1-4.67,4.67v28c0,2.57,2.1,4.67,4.67,4.67H121.4
				c2.57,0,4.67-2.1,4.67-4.67v-28C126.07,2.31,123.97,0.21,121.4,0.21L121.4,0.21z"/>
		</g>
	</g>
	<path class="st1" d="M63.66,20.52c-2.2,0-3.98,1.67-3.98,3.97c0,2.29,1.79,3.97,3.98,3.97c2.2,0,3.98-1.68,3.98-3.97
		C67.65,22.18,65.86,20.52,63.66,20.52z M63.66,26.89c-1.2,0-2.24-0.99-2.24-2.41c0-1.43,1.04-2.41,2.24-2.41
		c1.2,0,2.24,0.98,2.24,2.41C65.9,25.9,64.87,26.89,63.66,26.89z M54.97,20.52c-2.2,0-3.98,1.67-3.98,3.97
		c0,2.29,1.79,3.97,3.98,3.97c2.2,0,3.98-1.68,3.98-3.97C58.95,22.18,57.17,20.52,54.97,20.52z M54.97,26.89
		c-1.2,0-2.24-0.99-2.24-2.41c0-1.43,1.04-2.41,2.24-2.41c1.2,0,2.24,0.98,2.24,2.41C57.21,25.9,56.17,26.89,54.97,26.89z
		 M44.63,21.73v1.68h4.03c-0.12,0.95-0.44,1.64-0.92,2.12c-0.59,0.59-1.5,1.23-3.11,1.23c-2.48,0-4.42-2-4.42-4.48
		s1.94-4.48,4.42-4.48c1.34,0,2.32,0.53,3.04,1.2l1.19-1.19c-1.01-0.96-2.35-1.7-4.23-1.7c-3.4,0-6.26,2.77-6.26,6.16
		c0,3.4,2.86,6.16,6.26,6.16c1.83,0,3.22-0.6,4.3-1.73c1.11-1.11,1.46-2.68,1.46-3.94c0-0.39-0.03-0.75-0.09-1.05H44.63z
		 M86.92,23.04c-0.33-0.89-1.34-2.53-3.4-2.53c-2.04,0-3.74,1.61-3.74,3.97c0,2.23,1.68,3.97,3.94,3.97c1.82,0,2.87-1.11,3.31-1.76
		l-1.35-0.9c-0.45,0.66-1.07,1.1-1.95,1.1c-0.89,0-1.52-0.41-1.92-1.2l5.31-2.2L86.92,23.04z M81.5,24.36
		c-0.05-1.53,1.19-2.32,2.07-2.32c0.69,0,1.28,0.35,1.47,0.84L81.5,24.36z M77.19,28.21h1.74V16.55h-1.74V28.21z M74.33,21.4h-0.06
		c-0.39-0.47-1.14-0.89-2.09-0.89c-1.98,0-3.8,1.74-3.8,3.98c0,2.23,1.82,3.95,3.8,3.95c0.95,0,1.7-0.42,2.09-0.9h0.06v0.57
		c0,1.52-0.81,2.33-2.12,2.33c-1.07,0-1.73-0.77-2-1.41l-1.52,0.63c0.44,1.05,1.59,2.35,3.52,2.35c2.05,0,3.77-1.2,3.77-4.14v-7.13
		h-1.65V21.4z M72.33,26.89c-1.2,0-2.21-1.01-2.21-2.39c0-1.4,1.01-2.42,2.21-2.42c1.19,0,2.12,1.02,2.12,2.42
		C74.45,25.88,73.52,26.89,72.33,26.89z M95.09,16.55h-4.17v11.67h1.74v-4.42h2.43c1.93,0,3.83-1.4,3.83-3.62
		S97.02,16.55,95.09,16.55z M95.13,22.17h-2.48v-4h2.48c1.3,0,2.04,1.08,2.04,2C97.17,21.07,96.43,22.17,95.13,22.17z M105.9,20.49
		c-1.26,0-2.57,0.56-3.11,1.79l1.55,0.65c0.33-0.65,0.95-0.86,1.59-0.86c0.9,0,1.82,0.54,1.83,1.5v0.12
		c-0.32-0.18-0.99-0.45-1.82-0.45c-1.67,0-3.36,0.92-3.36,2.63c0,1.56,1.37,2.57,2.9,2.57c1.17,0,1.82-0.53,2.22-1.14h0.06v0.9h1.68
		v-4.47C109.44,21.65,107.89,20.49,105.9,20.49z M105.69,26.89c-0.57,0-1.37-0.29-1.37-0.99c0-0.9,0.99-1.25,1.85-1.25
		c0.77,0,1.13,0.17,1.59,0.39C107.62,26.12,106.69,26.89,105.69,26.89z M115.56,20.75l-2,5.06h-0.06l-2.07-5.06h-1.88l3.11,7.07
		l-1.77,3.93h1.82l4.79-11H115.56z M99.88,28.21h1.74V16.55h-1.74V28.21z"/>
	<g>
		
			<linearGradient id="SVGID_1_" gradientUnits="userSpaceOnUse" x1="20.4152" y1="31.657" x2="4.7516" y2="15.9935" gradientTransform="matrix(1 0 0 -1 0 40)">
			<stop  offset="0" style="stop-color:#00A0FF"/>
			<stop  offset="6.574450e-03" style="stop-color:#00A1FF"/>
			<stop  offset="0.2601" style="stop-color:#00BEFF"/>
			<stop  offset="0.5122" style="stop-color:#00D2FF"/>
			<stop  offset="0.7604" style="stop-color:#00DFFF"/>
			<stop  offset="1" style="stop-color:#00E3FF"/>
		</linearGradient>
		<path class="st2" d="M9.81,7.25C9.54,7.54,9.38,7.98,9.38,8.56V29.2c0,0.58,0.16,1.02,0.43,1.31l0.07,0.07l11.56-11.56v-0.14
			v-0.14L9.88,7.18L9.81,7.25z"/>
		
			<linearGradient id="SVGID_2_" gradientUnits="userSpaceOnUse" x1="31.6475" y1="21.1181" x2="9.0637" y2="21.1181" gradientTransform="matrix(1 0 0 -1 0 40)">
			<stop  offset="0" style="stop-color:#FFE000"/>
			<stop  offset="0.4087" style="stop-color:#FFBD00"/>
			<stop  offset="0.7754" style="stop-color:#FFA500"/>
			<stop  offset="1" style="stop-color:#FF9C00"/>
		</linearGradient>
		<path class="st3" d="M25.29,22.87l-3.85-3.86v-0.14v-0.14l3.86-3.86l0.09,0.05l4.57,2.59c1.3,0.74,1.3,1.95,0,2.7l-4.57,2.59
			L25.29,22.87z"/>
		
			<linearGradient id="SVGID_3_" gradientUnits="userSpaceOnUse" x1="23.2406" y1="18.9764" x2="1.9995" y2="-2.2647" gradientTransform="matrix(1 0 0 -1 0 40)">
			<stop  offset="0" style="stop-color:#FF3A44"/>
			<stop  offset="1" style="stop-color:#C31162"/>
		</linearGradient>
		<path class="st4" d="M25.38,22.82l-3.94-3.94L9.81,30.51c0.43,0.46,1.14,0.51,1.94,0.06L25.38,22.82"/>
		
			<linearGradient id="SVGID_4_" gradientUnits="userSpaceOnUse" x1="6.8796" y1="39.6217" x2="16.3646" y2="30.1366" gradientTransform="matrix(1 0 0 -1 0 40)">
			<stop  offset="0" style="stop-color:#32A071"/>
			<stop  offset="0.0685" style="stop-color:#2DA771"/>
			<stop  offset="0.4762" style="stop-color:#15CF74"/>
			<stop  offset="0.8009" style="stop-color:#06E775"/>
			<stop  offset="1" style="stop-color:#00F076"/>
		</linearGradient>
		<path class="st5" d="M25.38,14.94L11.75,7.19c-0.8-0.45-1.51-0.4-1.94,0.06l11.63,11.63L25.38,14.94z"/>
		<g>
			<path class="st6" d="M25.3,22.74l-13.55,7.7c-0.76,0.43-1.44,0.4-1.87,0.01l0,0l-0.07,0.07l0,0l0.07,0.07l0,0
				c0.43,0.39,1.11,0.42,1.87-0.01l13.63-7.75L25.3,22.74z"/>
			<path class="st7" d="M9.81,30.38c-0.27-0.29-0.43-0.73-0.43-1.31v0.14c0,0.58,0.16,1.02,0.43,1.31l0.07-0.07L9.81,30.38z"/>
		</g>
		<path class="st7" d="M29.95,20.09l-4.65,2.64l0.09,0.09l4.57-2.59c0.65-0.37,0.98-0.86,0.98-1.35l0,0
			C30.87,19.32,30.54,19.76,29.95,20.09z"/>
		<path class="st8" d="M11.75,7.33l18.2,10.34c0.59,0.34,0.92,0.77,0.98,1.21l0,0c0-0.49-0.33-0.98-0.98-1.35L11.75,7.19
			c-1.3-0.74-2.37-0.13-2.37,1.37V8.7C9.38,7.2,10.44,6.59,11.75,7.33z"/>
	</g>
	<path class="st9" d="M38.6,12.35v-5.6h1.71c0.86,0,1.55,0.26,2.07,0.78c0.52,0.52,0.77,1.19,0.77,2.02c0,0.83-0.26,1.5-0.77,2.02
		c-0.52,0.52-1.2,0.78-2.07,0.78H38.6z M39.31,11.66h0.99c0.65,0,1.16-0.18,1.54-0.56c0.38-0.37,0.57-0.89,0.57-1.56
		c0-0.66-0.19-1.18-0.57-1.55c-0.38-0.37-0.89-0.56-1.54-0.56h-0.99V11.66z"/>
	<path class="st9" d="M44.16,12.35v-5.6h0.72v5.6H44.16z"/>
	<path class="st9" d="M47.74,12.47c-0.41,0-0.8-0.13-1.19-0.4c-0.39-0.27-0.64-0.64-0.76-1.12l0.66-0.27
		c0.08,0.31,0.24,0.57,0.48,0.78c0.24,0.21,0.52,0.32,0.82,0.32c0.31,0,0.58-0.08,0.8-0.25c0.22-0.16,0.33-0.39,0.33-0.67
		c0-0.31-0.11-0.55-0.33-0.72c-0.22-0.17-0.57-0.33-1.05-0.47c-0.5-0.16-0.87-0.36-1.13-0.61c-0.26-0.25-0.38-0.56-0.38-0.95
		c0-0.4,0.16-0.75,0.48-1.05c0.32-0.3,0.73-0.45,1.24-0.45c0.47,0,0.86,0.12,1.16,0.36c0.3,0.24,0.49,0.5,0.58,0.78l-0.66,0.27
		c-0.05-0.18-0.16-0.34-0.35-0.49c-0.18-0.15-0.42-0.23-0.72-0.23c-0.28,0-0.51,0.08-0.71,0.23c-0.2,0.15-0.29,0.35-0.29,0.57
		c0,0.21,0.09,0.38,0.27,0.53c0.18,0.14,0.44,0.27,0.79,0.39c0.28,0.09,0.51,0.17,0.69,0.26c0.18,0.08,0.37,0.19,0.56,0.33
		c0.19,0.14,0.33,0.31,0.43,0.52c0.1,0.21,0.14,0.44,0.14,0.72s-0.06,0.51-0.17,0.73c-0.11,0.21-0.26,0.38-0.45,0.51
		c-0.18,0.12-0.38,0.22-0.6,0.29C48.18,12.44,47.96,12.47,47.74,12.47z"/>
	<path class="st9" d="M51.36,12.35h-0.72v-5.6h1.91c0.47,0,0.89,0.16,1.23,0.47c0.35,0.32,0.52,0.71,0.52,1.19
		c0,0.48-0.17,0.88-0.52,1.19c-0.35,0.32-0.76,0.47-1.23,0.47h-1.19V12.35z M51.36,9.39h1.2c0.3,0,0.55-0.1,0.73-0.3
		c0.18-0.2,0.27-0.43,0.27-0.67s-0.09-0.47-0.27-0.67c-0.18-0.2-0.42-0.31-0.73-0.31h-1.2V9.39z"/>
	<path class="st9" d="M59.79,11.62c-0.55,0.57-1.23,0.85-2.05,0.85c-0.82,0-1.5-0.28-2.05-0.85c-0.55-0.57-0.82-1.26-0.82-2.08
		c0-0.82,0.27-1.51,0.82-2.08c0.55-0.57,1.23-0.85,2.05-0.85c0.81,0,1.5,0.28,2.05,0.85c0.55,0.57,0.83,1.26,0.83,2.07
		C60.61,10.37,60.34,11.06,59.79,11.62z M56.21,11.15c0.41,0.42,0.92,0.63,1.52,0.63c0.6,0,1.11-0.21,1.52-0.63
		c0.41-0.42,0.62-0.96,0.62-1.61s-0.21-1.19-0.62-1.61c-0.41-0.42-0.92-0.63-1.52-0.63c-0.6,0-1.11,0.21-1.52,0.63
		c-0.41,0.42-0.62,0.96-0.62,1.61S55.8,10.73,56.21,11.15z"/>
	<path class="st9" d="M61.62,12.35v-5.6h0.88l2.72,4.36h0.03l-0.03-1.08V6.75h0.72v5.6h-0.75l-2.85-4.57h-0.03l0.03,1.08v3.49H61.62
		z"/>
	<path class="st9" d="M67.22,12.35v-5.6h0.72v5.6H67.22z"/>
	<path class="st9" d="M69.22,12.35v-5.6h2.03c0.44,0,0.82,0.14,1.14,0.43c0.32,0.29,0.48,0.65,0.48,1.09c0,0.27-0.07,0.5-0.21,0.7
		c-0.14,0.2-0.32,0.36-0.55,0.46v0.03c0.28,0.09,0.5,0.26,0.68,0.48c0.18,0.23,0.27,0.5,0.27,0.8c0,0.46-0.17,0.84-0.5,1.14
		c-0.34,0.3-0.73,0.45-1.19,0.45H69.22z M69.94,9.15h1.31c0.27,0,0.49-0.09,0.65-0.27c0.16-0.18,0.25-0.38,0.25-0.59
		c0-0.21-0.08-0.41-0.24-0.59c-0.16-0.18-0.37-0.27-0.63-0.27h-1.34V9.15z M69.94,11.66h1.45c0.28,0,0.5-0.1,0.67-0.29
		c0.17-0.19,0.26-0.4,0.26-0.63c0-0.23-0.09-0.44-0.27-0.63c-0.18-0.19-0.41-0.29-0.7-0.29h-1.42V11.66z"/>
	<path class="st9" d="M74.03,12.35v-5.6h0.72v4.91h2.42v0.69H74.03z"/>
	<path class="st9" d="M81.35,7.44H78.8v1.78h2.3v0.67h-2.3v1.78h2.55v0.69h-3.27v-5.6h3.27V7.44z"/>
	<path class="st9" d="M85.69,12.47c-0.41,0-0.8-0.13-1.19-0.4c-0.39-0.27-0.64-0.64-0.76-1.12l0.66-0.27
		c0.08,0.31,0.24,0.57,0.48,0.78c0.24,0.21,0.52,0.32,0.82,0.32c0.31,0,0.58-0.08,0.8-0.25s0.33-0.39,0.33-0.67
		c0-0.31-0.11-0.55-0.33-0.72c-0.22-0.17-0.57-0.33-1.05-0.47c-0.5-0.16-0.87-0.36-1.13-0.61c-0.26-0.25-0.38-0.56-0.38-0.95
		c0-0.4,0.16-0.75,0.48-1.05c0.32-0.3,0.73-0.45,1.24-0.45c0.47,0,0.86,0.12,1.16,0.36c0.3,0.24,0.49,0.5,0.58,0.78l-0.66,0.27
		c-0.05-0.18-0.16-0.34-0.35-0.49c-0.19-0.15-0.42-0.23-0.72-0.23c-0.28,0-0.51,0.08-0.71,0.23c-0.2,0.15-0.29,0.35-0.29,0.57
		c0,0.21,0.09,0.38,0.27,0.53c0.18,0.14,0.44,0.27,0.79,0.39c0.28,0.09,0.51,0.17,0.69,0.26c0.18,0.08,0.37,0.19,0.56,0.33
		c0.19,0.14,0.33,0.31,0.43,0.52c0.1,0.21,0.14,0.44,0.14,0.72s-0.06,0.51-0.17,0.73c-0.11,0.21-0.26,0.38-0.45,0.51
		c-0.18,0.12-0.38,0.22-0.6,0.29C86.14,12.44,85.92,12.47,85.69,12.47z"/>
	<path class="st9" d="M90.54,12.47c-0.62,0-1.11-0.2-1.5-0.61c-0.38-0.41-0.57-0.94-0.57-1.6V6.75h0.72v3.55
		c0,0.44,0.12,0.8,0.35,1.08c0.23,0.27,0.57,0.41,1.01,0.41c0.44,0,0.77-0.14,1-0.41c0.23-0.27,0.35-0.63,0.35-1.08V6.75h0.72v3.52
		c0,0.66-0.19,1.2-0.56,1.6C91.68,12.27,91.18,12.47,90.54,12.47z"/>
	<path class="st9" d="M93.77,12.35v-5.6h1.91c0.47,0,0.88,0.16,1.23,0.47c0.35,0.32,0.52,0.71,0.52,1.19c0,0.39-0.13,0.74-0.38,1.04
		c-0.26,0.3-0.57,0.49-0.95,0.57l-0.02,0.02l1.57,2.28v0.03H96.8l-1.51-2.27h-0.8v2.27H93.77z M94.49,9.41h1.16
		c0.29,0,0.53-0.09,0.74-0.28C96.6,8.94,96.7,8.7,96.7,8.41c0-0.25-0.09-0.47-0.27-0.67C96.24,7.54,96,7.44,95.7,7.44h-1.21V9.41z"
		/>
</g>
</svg>
