<svg width="14" height="13" viewBox="0 0 14 13" fill="none" xmlns="http://www.w3.org/2000/svg">
<path d="M4.15528 12.886C3.98964 12.9725 3.8031 13.0108 3.61679 12.9966C3.43048 12.9825 3.25187 12.9164 3.1012 12.8059C2.95052 12.6954 2.83382 12.5449 2.76431 12.3715C2.6948 12.1981 2.67528 12.0086 2.70795 11.8247L3.24728 8.73333L0.976612 6.55733C0.840595 6.42762 0.743887 6.2622 0.697577 6.08004C0.651268 5.89788 0.657232 5.70636 0.714785 5.52744C0.772339 5.34852 0.879151 5.18943 1.02298 5.06844C1.1668 4.94744 1.34181 4.86942 1.52795 4.84333L4.68061 4.39267L6.10395 1.55333C6.18668 1.3864 6.3144 1.24589 6.47271 1.14767C6.63103 1.04944 6.81363 0.997387 6.99995 0.997387C7.18626 0.997387 7.36886 1.04944 7.52718 1.14767C7.68549 1.24589 7.81321 1.3864 7.89594 1.55333L9.31928 4.39267L12.4719 4.84333C12.6581 4.86942 12.8331 4.94744 12.9769 5.06844C13.1207 5.18943 13.2276 5.34852 13.2851 5.52744C13.3427 5.70636 13.3486 5.89788 13.3023 6.08004C13.256 6.2622 13.1593 6.42762 13.0233 6.55733L10.7526 8.73333L11.2919 11.8253C11.3246 12.0093 11.3051 12.1987 11.2356 12.3722C11.1661 12.5456 11.0494 12.6961 10.8987 12.8066C10.748 12.9171 10.5694 12.9831 10.3831 12.9973C10.1968 13.0115 10.0102 12.9731 9.84461 12.8867L6.99995 11.4167L4.15528 12.886Z" fill="#FBB217"/>
</svg>
