<svg width="72" height="72" viewBox="0 0 72 72" fill="none" xmlns="http://www.w3.org/2000/svg">
<path d="M15.69 56.202C12.33 52.842 12.33 47.412 15.69 44.058L44.028 15.72C47.358 12.36 52.818 12.36 56.172 15.72C59.502 19.05 59.502 24.51 56.172 27.864L27.834 56.202C24.474 59.532 19.044 59.532 15.69 56.202Z" stroke="#90471C" stroke-width="3" stroke-linecap="round" stroke-linejoin="round"/>
<path d="M48.93 21.957L47.94 22.917H47.91C47.13 23.667 46.56 24.567 46.32 25.497C45.84 27.324 43.974 29.187 42.15 29.667C40.323 30.117 38.43 32.013 37.98 33.837C37.5 35.664 35.634 37.527 33.81 38.007C31.983 38.457 30.09 40.353 29.64 42.177C29.16 44.004 27.294 45.867 25.47 46.347C24.54 46.587 23.61 47.157 22.86 47.907L21.87 48.867" stroke="#90471C" stroke-width="3" stroke-linecap="round" stroke-linejoin="round"/>
<path d="M29.037 61.41C27.267 59.64 27.267 56.76 29.037 54.99L55.017 29.001C56.757 27.231 59.637 27.231 61.407 29.001C61.947 29.541 62.337 30.231 62.547 30.981L62.637 31.371C63.447 34.341 62.577 37.524 60.417 39.681L39.705 60.381C37.515 62.541 34.335 63.381 31.365 62.571L30.945 62.451C30.165 62.241 29.475 61.821 28.935 61.281L29.037 61.41Z" stroke="#90471C" stroke-width="3" stroke-linecap="round" stroke-linejoin="round"/>
<path d="M42.87 10.47C44.61 12.237 44.61 15.102 42.87 16.86L16.86 42.84C15.09 44.58 12.21 44.58 10.461 42.84C9.89098 42.27 9.50098 41.58 9.29098 40.83C8.39098 37.59 9.32098 34.17 11.685 31.8L31.815 11.667C34.155 9.30901 37.605 8.36701 40.815 9.27301C41.565 9.45301 42.255 9.87301 42.825 10.434L42.87 10.47Z" stroke="#90471C" stroke-width="3" stroke-linecap="round" stroke-linejoin="round"/>
</svg>
