<svg width="617" height="617" viewBox="0 0 617 617" fill="none" xmlns="http://www.w3.org/2000/svg">
<rect width="617" height="617" fill="#014833"/>
<path d="M415.75 267.055C420.975 267.155 423.789 261.126 420.171 257.408C391.833 227.864 301.896 141.444 205.226 124.06C204.02 123.859 202.814 124.16 201.91 125.064C197.287 129.586 194.574 135.415 194.574 141.746C194.574 155.814 207.738 167.973 224.821 167.973L272.352 166.365C274.262 166.265 275.97 167.772 276.07 169.782C276.171 171.691 274.664 173.399 272.654 173.5L249.441 174.404C245.321 174.605 241.201 176.213 239.191 179.73C237.282 182.946 236.277 186.664 236.277 190.382C236.277 202.34 246.527 212.389 260.495 215.203C262.505 215.605 264.514 215.705 266.524 215.605L314.156 214.298C316.165 214.298 317.773 215.806 317.773 217.715C317.874 219.624 316.266 221.332 314.357 221.332L291.043 222.036C286.119 222.136 281.095 224.649 280.592 229.673C279.588 240.827 289.938 261.226 375.052 266.351L400.576 266.954L415.75 267.055Z" fill="#FFF4E2"/>
<path d="M405.199 197.919C340.886 187.769 287.225 227.362 268.434 280.922L319.18 281.023C319.18 281.023 283.306 290.268 266.323 304.638L508.903 347.747C522.469 282.229 481.369 209.977 405.199 197.919Z" fill="#FBB217"/>
<path d="M519.353 367.744C520.257 362.82 517.041 358.198 512.118 357.294L251.852 311.069C246.928 310.164 242.306 313.38 241.401 318.304C240.497 323.228 243.713 327.85 248.636 328.755L508.902 374.98C513.826 375.884 518.448 372.668 519.353 367.744Z" fill="url(#paint0_linear)"/>
<path d="M508.902 375.08L248.636 328.855C243.713 327.951 240.497 323.328 241.401 318.404C242.306 313.48 246.928 310.265 251.852 311.169L512.118 357.394C517.041 358.298 520.257 362.921 519.353 367.845C518.448 372.668 513.826 375.884 508.902 375.08Z" fill="#FBB217"/>
<path d="M410.323 192.693C419.166 194.301 427.507 188.372 429.114 179.529C430.722 170.686 424.793 162.346 415.95 160.738C407.107 159.13 398.767 165.059 397.159 173.902C395.652 182.745 401.48 191.085 410.323 192.693Z" fill="#FF764C"/>
<path d="M107.149 219.624H128.252" stroke="#FF764C" stroke-width="4.57058" stroke-miterlimit="10" stroke-linecap="round"/>
<path d="M118.203 258.815H167.141" stroke="#FF764C" stroke-width="4.57058" stroke-miterlimit="10" stroke-linecap="round"/>
<path d="M152.369 298.005H191.56" stroke="#FF764C" stroke-width="4.57058" stroke-miterlimit="10" stroke-linecap="round"/>
<path d="M322.597 273.486C294.159 243.842 204.322 157.422 107.652 140.037C106.446 139.836 105.24 140.138 104.336 141.042C99.7132 145.564 97 151.392 97 157.723C97 171.792 110.064 182.946 127.147 182.946H174.879H175.683C175.884 182.946 175.984 182.946 176.185 183.046H176.286C176.486 183.046 176.687 183.147 176.788 183.247H176.888C176.989 183.247 177.089 183.348 177.19 183.448C177.29 183.549 177.391 183.549 177.491 183.649C177.491 183.649 177.592 183.649 177.592 183.75C178.496 184.353 179.099 185.257 179.099 186.362C179.099 186.463 179.099 186.463 179.099 186.563V186.664C179.099 186.764 179.099 186.865 179.099 186.965C179.099 186.965 179.099 186.965 179.099 187.066C178.898 188.875 177.391 190.282 175.482 190.282H153.475L150.359 190.382C146.641 190.482 143.225 192.392 141.416 195.607C139.507 198.823 138.401 202.541 138.401 206.36C138.401 216.409 145.636 224.85 156.288 228.869C160.509 230.477 165.031 231.18 169.553 231.18H216.581H216.883C218.792 231.18 220.5 232.587 220.601 234.496C220.701 236.506 219.094 238.215 217.084 238.215H192.967C191.158 238.215 189.45 238.516 187.842 239.219C185.229 240.425 183.219 242.536 183.018 245.55C182.214 254.393 188.545 268.964 233.564 277.204C247.632 279.817 261.902 280.922 276.171 280.922H319.281C323.099 281.023 325.31 276.4 322.597 273.486Z" fill="#FFF4E2"/>
<path fill-rule="evenodd" clip-rule="evenodd" d="M441.612 233.221C442.039 231.854 443.493 231.092 444.86 231.519L444.087 233.994C444.86 231.519 444.861 231.52 444.862 231.52L444.865 231.521L444.874 231.524L444.899 231.532C444.92 231.538 444.948 231.547 444.984 231.559C445.056 231.583 445.158 231.616 445.287 231.661C445.546 231.749 445.917 231.88 446.384 232.055C447.317 232.406 448.639 232.936 450.224 233.663C453.388 235.114 457.636 237.368 461.962 240.579C470.599 246.992 479.764 257.406 480.84 273.006C480.938 274.435 479.86 275.673 478.431 275.771C477.003 275.87 475.765 274.792 475.666 273.363C474.732 259.822 466.813 250.64 458.871 244.743C454.906 241.799 450.989 239.719 448.061 238.376C446.6 237.706 445.394 237.223 444.561 236.91C444.145 236.754 443.822 236.64 443.609 236.567C443.503 236.531 443.424 236.505 443.374 236.488L443.321 236.471L443.313 236.469L443.312 236.468C441.946 236.041 441.185 234.587 441.612 233.221Z" fill="#014833"/>
<path d="M102.689 459.482H80.2969V523.197H102.689C123.863 523.197 132.67 512.328 132.67 491.339C132.67 470.257 123.863 459.482 102.689 459.482ZM102.689 511.953H92.4766V470.726H102.689C117.304 470.726 120.49 475.879 120.49 491.339C120.49 506.425 117.304 511.953 102.689 511.953ZM183.536 498.085C183.536 484.031 177.727 474.005 162.549 474.005C146.997 474.005 141.188 484.78 141.188 499.116C141.188 508.861 144.28 524.134 165.922 524.134C169.482 524.134 173.042 524.134 180.35 522.447V511.391C173.886 512.89 169.67 512.89 166.859 512.89C157.49 512.89 154.586 509.423 153.742 503.52H183.536V498.085ZM162.362 485.249C168.358 485.249 170.981 488.06 171.356 494.619H153.461C153.836 488.341 156.553 485.249 162.362 485.249ZM192.377 457.608V523.197H204.557V457.608H192.377ZM215.8 457.608V466.978H227.979V457.608H215.8ZM215.8 474.942V523.197H227.979V474.942H215.8ZM271.966 474.942L261.379 510.829H259.88L249.293 474.942H236.364L251.261 523.197H269.998L284.895 474.942H271.966ZM322.526 474.942H292.358V523.197H304.538V486.186H322.526V474.942ZM370.001 498.085C370.001 484.031 364.192 474.005 349.014 474.005C333.462 474.005 327.653 484.78 327.653 499.116C327.653 508.861 330.745 524.134 352.387 524.134C355.947 524.134 359.508 524.134 366.815 522.447V511.391C360.351 512.89 356.135 512.89 353.324 512.89C343.955 512.89 341.05 509.423 340.207 503.52H370.001V498.085ZM348.827 485.249C354.823 485.249 357.446 488.06 357.821 494.619H339.926C340.301 488.341 343.018 485.249 348.827 485.249ZM419.315 498.085C419.315 484.031 413.509 474.005 398.331 474.005C382.777 474.005 376.968 484.78 376.968 499.116C376.968 508.861 380.06 524.134 401.702 524.134C405.264 524.134 408.823 524.134 416.132 522.447V511.391C409.665 512.89 405.449 512.89 402.638 512.89C393.269 512.89 390.366 509.423 389.523 503.52H419.315V498.085ZM398.143 485.249C404.137 485.249 406.76 488.06 407.136 494.619H389.242C389.616 488.341 392.333 485.249 398.143 485.249ZM457.421 486.186V474.942H444.585V457.608H432.405V474.942H424.912V486.186H432.405V523.197H457.421V511.953H444.585V486.186H457.421ZM469.604 457.608V466.978H481.783V457.608H469.604ZM469.604 474.942V523.197H481.783V474.942H469.604ZM490.604 499.022C490.604 513.733 497.819 524.134 512.809 524.134C526.676 524.134 533.887 514.67 533.887 503.52H521.708C521.336 508.861 519.836 512.89 512.997 512.89C504.752 512.89 502.783 508.392 502.783 499.022C502.783 489.653 504.752 485.249 512.997 485.249C519.836 485.249 521.336 489.278 521.708 494.619H533.887C533.887 483.469 526.676 474.005 512.809 474.005C497.819 474.005 490.604 484.312 490.604 499.022Z" fill="#FFF4E2"/>
<defs>
<linearGradient id="paint0_linear" x1="241.208" y1="343.073" x2="519.471" y2="343.073" gradientUnits="userSpaceOnUse">
<stop stop-color="#FBB217"/>
<stop offset="0.6781" stop-color="#FF764C"/>
<stop offset="1" stop-color="#FCA820"/>
</linearGradient>
</defs>
</svg>
