<svg width="210" height="52" viewBox="0 0 210 52" fill="none" xmlns="http://www.w3.org/2000/svg">
<path d="M34.9094 27.3296C35.3498 27.3381 35.587 26.8299 35.2821 26.5166C32.8938 24.0267 25.314 16.7433 17.1668 15.2781C17.0651 15.2612 16.9635 15.2866 16.8873 15.3628C16.4977 15.7439 16.269 16.2352 16.269 16.7687C16.269 17.9544 17.3785 18.9791 18.8182 18.9791L22.8241 18.8436C22.985 18.8352 23.129 18.9622 23.1374 19.1316C23.1459 19.2925 23.0189 19.4365 22.8495 19.4449L20.8931 19.5211C20.5459 19.5381 20.1987 19.6736 20.0293 19.97C19.8684 20.241 19.7837 20.5544 19.7837 20.8677C19.7837 21.8755 20.6475 22.7224 21.8247 22.9596C21.9941 22.9935 22.1635 23.0019 22.3329 22.9935L26.3472 22.8834C26.5166 22.8834 26.6521 23.0104 26.6521 23.1713C26.6606 23.3322 26.5251 23.4762 26.3642 23.4762L24.3993 23.5355C23.9844 23.5439 23.5609 23.7557 23.5186 24.1791C23.4339 25.1192 24.3062 26.8384 31.4795 27.2703L33.6306 27.3211L34.9094 27.3296Z" fill="#FFF4E2"/>
<path d="M34.0202 21.503C28.6 20.6476 24.0775 23.9844 22.4938 28.4984L26.7706 28.5069C26.7706 28.5069 23.7472 29.2861 22.3159 30.4971L42.7602 34.1304C43.9035 28.6085 40.4397 22.5193 34.0202 21.503Z" fill="#FBB217"/>
<path d="M43.6411 35.8156C43.7173 35.4006 43.4463 35.0111 43.0313 34.9348L21.0965 31.0391C20.6815 30.9629 20.2919 31.2339 20.2157 31.6488C20.1395 32.0638 20.4105 32.4534 20.8255 32.5296L42.7603 36.4254C43.1753 36.5016 43.5649 36.2306 43.6411 35.8156Z" fill="url(#paint0_linear)"/>
<path d="M42.7601 36.4345L20.8252 32.5387C20.4103 32.4625 20.1392 32.0729 20.2155 31.6579C20.2917 31.243 20.6813 30.9719 21.0963 31.0482L43.0311 34.9439C43.4461 35.0202 43.7171 35.4097 43.6409 35.8247C43.5647 36.2312 43.1751 36.5022 42.7601 36.4345Z" fill="#FBB217"/>
<path d="M34.4522 21.0626C35.1975 21.1981 35.9004 20.6984 36.0359 19.9531C36.1714 19.2078 35.6717 18.5049 34.9265 18.3694C34.1812 18.2339 33.4783 18.7336 33.3427 19.4789C33.2157 20.2241 33.7069 20.9271 34.4522 21.0626Z" fill="#FF764C"/>
<path d="M8.90112 23.3322H10.6796" stroke="#FF764C" stroke-width="0.597162" stroke-miterlimit="10" stroke-linecap="round"/>
<path d="M9.83252 26.6352H13.9569" stroke="#FF764C" stroke-width="0.597162" stroke-miterlimit="10" stroke-linecap="round"/>
<path d="M12.7122 29.938H16.0151" stroke="#FF764C" stroke-width="0.597162" stroke-miterlimit="10" stroke-linecap="round"/>
<path d="M27.0584 27.8717C24.6617 25.3734 17.0904 18.09 8.94313 16.6248C8.8415 16.6079 8.73987 16.6333 8.66365 16.7095C8.27407 17.0906 8.04541 17.5818 8.04541 18.1154C8.04541 19.301 9.14639 20.2411 10.5861 20.2411H14.6089H14.6767C14.6936 20.2411 14.7021 20.2411 14.719 20.2496H14.7275C14.7444 20.2496 14.7614 20.2581 14.7698 20.2665H14.7783C14.7868 20.2665 14.7952 20.275 14.8037 20.2835C14.8122 20.2919 14.8207 20.2919 14.8291 20.3004C14.8291 20.3004 14.8376 20.3004 14.8376 20.3089C14.9138 20.3597 14.9646 20.4359 14.9646 20.5291C14.9646 20.5375 14.9646 20.5375 14.9646 20.546V20.5545C14.9646 20.5629 14.9646 20.5714 14.9646 20.5799C14.9646 20.5799 14.9646 20.5799 14.9646 20.5883C14.9477 20.7408 14.8207 20.8594 14.6597 20.8594H12.805L12.5425 20.8678C12.2291 20.8763 11.9412 21.0372 11.7887 21.3082C11.6278 21.5792 11.5347 21.8926 11.5347 22.2144C11.5347 23.0613 12.1444 23.7727 13.0422 24.1115C13.3979 24.247 13.779 24.3063 14.1601 24.3063H18.1236H18.149C18.3099 24.3063 18.4539 24.4248 18.4623 24.5857C18.4708 24.7551 18.3353 24.8991 18.1659 24.8991H16.1334C15.9809 24.8991 15.8369 24.9245 15.7014 24.9838C15.4812 25.0854 15.3119 25.2633 15.2949 25.5173C15.2272 26.2626 15.7607 27.4906 19.5549 28.1851C20.7405 28.4053 21.9431 28.4984 23.1457 28.4984H26.779C27.1008 28.5069 27.2871 28.1173 27.0584 27.8717Z" fill="#FFF4E2"/>
<path fill-rule="evenodd" clip-rule="evenodd" d="M36.9743 24.4423C37.0301 24.2637 37.2201 24.1642 37.3986 24.22L37.2976 24.5433C37.3986 24.22 37.3988 24.22 37.3989 24.2201L37.3993 24.2202L37.4002 24.2205L37.4027 24.2213C37.4047 24.2219 37.4073 24.2227 37.4106 24.2238C37.4172 24.226 37.4262 24.229 37.4377 24.2329C37.4606 24.2407 37.4929 24.2522 37.5335 24.2674C37.6145 24.2978 37.7285 24.3435 37.8649 24.4061C38.1371 24.531 38.5028 24.7249 38.8758 25.0018C39.6198 25.5542 40.4211 26.4604 40.515 27.8229C40.5279 28.0096 40.387 28.1713 40.2004 28.1842C40.0137 28.1971 39.852 28.0562 39.8391 27.8696C39.7637 26.7761 39.1252 26.0308 38.4719 25.5458C38.1461 25.3039 37.8237 25.1326 37.5824 25.0219C37.4622 24.9668 37.3631 24.9271 37.2953 24.9016C37.2614 24.8889 37.2353 24.8797 37.2184 24.874C37.21 24.8711 37.2039 24.869 37.2001 24.8678L37.1964 24.8666C37.1962 24.8665 37.196 24.8665 37.196 24.8665L37.1963 24.8666C37.0179 24.8107 36.9185 24.6208 36.9743 24.4423ZM37.196 24.8665C37.196 24.8665 37.196 24.8665 37.196 24.8665V24.8665Z" fill="#014833"/>
<path d="M70.2489 17.6465H63.0952V38H70.2489C77.0134 38 79.827 34.5279 79.827 27.8233C79.827 21.0887 77.0134 17.6465 70.2489 17.6465ZM70.2489 34.4082H66.9863V21.2383H70.2489C74.9182 21.2383 75.9359 22.8846 75.9359 27.8233C75.9359 32.6422 74.9182 34.4082 70.2489 34.4082ZM96.0775 29.9783C96.0775 25.4886 94.2217 22.2859 89.3728 22.2859C84.4041 22.2859 82.5484 25.7281 82.5484 30.3076C82.5484 33.4205 83.5361 38.2993 90.4503 38.2993C91.5877 38.2993 92.7251 38.2993 95.0598 37.7605V34.2286C92.9945 34.7075 91.6476 34.7075 90.7496 34.7075C87.7565 34.7075 86.8286 33.6001 86.5592 31.7144H96.0775V29.9783ZM89.3129 25.8777C91.2285 25.8777 92.0666 26.7757 92.1864 28.8709H86.4694C86.5892 26.8655 87.4572 25.8777 89.3129 25.8777ZM98.902 17.0479V38H102.793V17.0479H98.902ZM106.385 17.0479V20.0411H110.276V17.0479H106.385ZM106.385 22.5852V38H110.276V22.5852H106.385ZM124.329 22.5852L120.946 34.049H120.467L117.085 22.5852H112.955L117.714 38H123.7L128.459 22.5852H124.329ZM140.481 22.5852H130.843V38H134.735V26.177H140.481V22.5852ZM155.648 29.9783C155.648 25.4886 153.793 22.2859 148.944 22.2859C143.975 22.2859 142.119 25.7281 142.119 30.3076C142.119 33.4205 143.107 38.2993 150.021 38.2993C151.159 38.2993 152.296 38.2993 154.631 37.7605V34.2286C152.565 34.7075 151.218 34.7075 150.32 34.7075C147.327 34.7075 146.399 33.6001 146.13 31.7144H155.648V29.9783ZM148.884 25.8777C150.799 25.8777 151.637 26.7757 151.757 28.8709H146.04C146.16 26.8655 147.028 25.8777 148.884 25.8777ZM171.403 29.9783C171.403 25.4886 169.548 22.2859 164.699 22.2859C159.73 22.2859 157.874 25.7281 157.874 30.3076C157.874 33.4205 158.862 38.2993 165.776 38.2993C166.914 38.2993 168.051 38.2993 170.386 37.7605V34.2286C168.32 34.7075 166.973 34.7075 166.075 34.7075C163.082 34.7075 162.154 33.6001 161.885 31.7144H171.403V29.9783ZM164.639 25.8777C166.554 25.8777 167.392 26.7757 167.512 28.8709H161.795C161.915 26.8655 162.783 25.8777 164.639 25.8777ZM183.577 26.177V22.5852H179.476V17.0479H175.585V22.5852H173.191V26.177H175.585V38H183.577V34.4082H179.476V26.177H183.577ZM187.469 17.0479V20.0411H191.36V17.0479H187.469ZM187.469 22.5852V38H191.36V22.5852H187.469ZM194.178 30.2777C194.178 34.9769 196.483 38.2993 201.272 38.2993C205.702 38.2993 208.006 35.2762 208.006 31.7144H204.115C203.996 33.4205 203.517 34.7075 201.332 34.7075C198.698 34.7075 198.069 33.2708 198.069 30.2777C198.069 27.2845 198.698 25.8777 201.332 25.8777C203.517 25.8777 203.996 27.1648 204.115 28.8709H208.006C208.006 25.309 205.702 22.2859 201.272 22.2859C196.483 22.2859 194.178 25.5784 194.178 30.2777Z" fill="#FFF4E2"/>
<defs>
<linearGradient id="paint0_linear" x1="20.1994" y1="33.7363" x2="43.6511" y2="33.7363" gradientUnits="userSpaceOnUse">
<stop stop-color="#FBB217"/>
<stop offset="0.6781" stop-color="#FF764C"/>
<stop offset="1" stop-color="#FCA820"/>
</linearGradient>
</defs>
</svg>
