<svg width="214" height="214" viewBox="0 0 214 214" fill="none" xmlns="http://www.w3.org/2000/svg">
<path d="M143.666 112.472C145.478 112.507 146.454 110.416 145.199 109.126C135.371 98.8792 104.177 68.9053 70.6478 62.8756C70.2296 62.8059 69.8113 62.9105 69.4977 63.2242C67.8944 64.7926 66.9534 66.8141 66.9534 69.0098C66.9534 73.8893 71.5192 78.1066 77.4442 78.1066L93.9299 77.5489C94.5921 77.5141 95.1846 78.0369 95.2195 78.7339C95.2543 79.3961 94.7315 79.9887 94.0345 80.0235L85.9833 80.3372C84.5543 80.4069 83.1254 80.9645 82.4283 82.1844C81.7661 83.2997 81.4175 84.5893 81.4175 85.8789C81.4175 90.0264 84.9726 93.5118 89.8172 94.4877C90.5143 94.6271 91.2114 94.6619 91.9084 94.6271L108.429 94.174C109.126 94.174 109.684 94.6968 109.684 95.359C109.719 96.0212 109.161 96.6137 108.499 96.6137L100.413 96.8577C98.7048 96.8926 96.9622 97.7639 96.7879 99.5066C96.4394 103.375 100.029 110.451 129.55 112.228L138.403 112.437L143.666 112.472Z" fill="#FFF4E2"/>
<path d="M140.006 88.4928C117.7 84.9726 99.0881 98.7049 92.5705 117.282L110.172 117.317C110.172 117.317 97.7289 120.523 91.8386 125.507L175.975 140.459C180.68 117.735 166.425 92.6753 140.006 88.4928Z" fill="#FBB217"/>
<path d="M179.599 147.395C179.913 145.687 178.798 144.084 177.09 143.77L86.8194 127.738C85.1116 127.424 83.5083 128.539 83.1947 130.247C82.881 131.955 83.9963 133.558 85.7041 133.872L175.974 149.904C177.682 150.218 179.286 149.103 179.599 147.395Z" fill="url(#paint0_linear)"/>
<path d="M175.974 149.942L85.7039 133.909C83.996 133.595 82.8807 131.992 83.1944 130.284C83.5081 128.576 85.1113 127.461 86.8192 127.775L177.09 143.807C178.797 144.121 179.913 145.724 179.599 147.432C179.285 149.105 177.682 150.22 175.974 149.942Z" fill="#FBB217"/>
<path d="M141.784 86.6803C144.851 87.2379 147.744 85.1816 148.302 82.1145C148.859 79.0474 146.803 76.1545 143.736 75.5969C140.669 75.0392 137.776 77.0956 137.218 80.1627C136.695 83.2298 138.717 86.1226 141.784 86.6803Z" fill="#FFF4E2"/>
<path d="M36.6316 96.0208H43.9508" stroke="#FFF4E2" stroke-width="0.597162" stroke-miterlimit="10" stroke-linecap="round"/>
<path d="M40.4646 109.614H57.4382" stroke="#FFF4E2" stroke-width="0.597162" stroke-miterlimit="10" stroke-linecap="round"/>
<path d="M52.3154 123.206H65.9083" stroke="#FFF4E2" stroke-width="0.597162" stroke-miterlimit="10" stroke-linecap="round"/>
<path d="M111.356 114.703C101.493 104.421 70.3336 74.4475 36.8046 68.4179C36.3863 68.3482 35.9681 68.4527 35.6544 68.7664C34.0512 70.3348 33.1101 72.3563 33.1101 74.5521C33.1101 79.4315 37.6411 83.3003 43.5661 83.3003H60.1215H60.4003C60.47 83.3003 60.5049 83.3003 60.5746 83.3351H60.6095C60.6792 83.3351 60.7489 83.37 60.7837 83.4048H60.8186C60.8534 83.4048 60.8883 83.4397 60.9231 83.4745C60.958 83.5094 60.9929 83.5094 61.0277 83.5442C61.0277 83.5442 61.0626 83.5442 61.0626 83.5791C61.3762 83.7882 61.5854 84.1019 61.5854 84.4853C61.5854 84.5201 61.5854 84.5201 61.5854 84.555V84.5898C61.5854 84.6247 61.5854 84.6595 61.5854 84.6944C61.5854 84.6944 61.5854 84.6944 61.5854 84.7293C61.5156 85.3566 60.9929 85.8446 60.3306 85.8446H52.6977L51.6173 85.8794C50.3277 85.9143 49.1427 86.5765 48.5153 87.6918C47.8531 88.8071 47.4697 90.0967 47.4697 91.4211C47.4697 94.9064 49.9792 97.8341 53.6736 99.2283C55.1375 99.7859 56.7059 100.03 58.2743 100.03H74.5857H74.6902C75.3525 100.03 75.945 100.518 75.9798 101.18C76.0147 101.877 75.457 102.47 74.76 102.47H66.3951C65.7678 102.47 65.1753 102.574 64.6176 102.818C63.7114 103.236 63.0143 103.968 62.9446 105.014C62.6658 108.081 64.8616 113.135 80.4759 115.993C85.3554 116.899 90.3046 117.282 95.2538 117.282H110.206C111.53 117.317 112.297 115.714 111.356 114.703Z" fill="#FFF4E2"/>
<path fill-rule="evenodd" clip-rule="evenodd" d="M152.163 100.589C152.393 99.8544 153.175 99.4448 153.91 99.6744L153.494 101.005C153.91 99.6744 153.911 99.6746 153.911 99.6748L153.913 99.6752L153.916 99.6764L153.927 99.6797C153.935 99.6823 153.946 99.6858 153.959 99.6902C153.986 99.6991 154.024 99.7115 154.071 99.7276C154.165 99.7598 154.298 99.8068 154.465 99.8695C154.798 99.9947 155.267 100.183 155.829 100.44C156.949 100.954 158.454 101.752 159.989 102.892C163.051 105.165 166.348 108.895 166.735 114.502C166.788 115.27 166.208 115.936 165.44 115.989C164.672 116.042 164.006 115.462 163.953 114.694C163.643 110.194 161.015 107.127 158.327 105.131C156.986 104.135 155.659 103.43 154.666 102.975C154.171 102.748 153.764 102.585 153.485 102.48C153.345 102.427 153.238 102.39 153.168 102.366C153.134 102.354 153.108 102.346 153.093 102.341L153.078 102.336C153.077 102.335 153.076 102.335 153.076 102.335L153.077 102.335C152.343 102.105 151.934 101.324 152.163 100.589ZM153.076 102.335C153.076 102.335 153.076 102.335 153.076 102.335Z" fill="#014833"/>
<defs>
<linearGradient id="paint0_linear" x1="83.1276" y1="138.838" x2="179.64" y2="138.838" gradientUnits="userSpaceOnUse">
<stop stop-color="#FBB217"/>
<stop offset="0.6781" stop-color="#FF764C"/>
<stop offset="1" stop-color="#FCA820"/>
</linearGradient>
</defs>
</svg>
