<svg width="2167" height="2167" viewBox="0 0 2167 2167" fill="none" xmlns="http://www.w3.org/2000/svg">
<rect width="2167" height="2167" rx="20.7427" fill="#014833"/>
<path d="M1454.79 1138.91C1473.14 1139.26 1483.02 1118.09 1470.31 1105.03C1370.79 1001.27 1054.91 697.746 715.394 636.689C711.159 635.983 706.924 637.041 703.747 640.218C687.513 656.1 677.983 676.57 677.983 698.804C677.983 748.215 724.217 790.92 784.216 790.92L951.152 785.273C957.858 784.92 963.858 790.214 964.211 797.272C964.564 803.978 959.27 809.978 952.211 810.331L870.684 813.507C856.214 814.213 841.744 819.86 834.685 832.213C827.979 843.506 824.45 856.565 824.45 869.623C824.45 911.622 860.449 946.915 909.507 956.798C916.565 958.209 923.624 958.562 930.682 958.209L1097.97 953.621C1105.03 953.621 1110.68 958.915 1110.68 965.621C1111.03 972.327 1105.38 978.326 1098.68 978.326L1016.8 980.797C999.504 981.15 981.858 989.973 980.093 1007.62C976.564 1046.8 1012.92 1118.44 1311.85 1136.44L1401.49 1138.56L1454.79 1138.91Z" fill="#FFF4E2"/>
<path d="M1417.73 896.093C1191.85 860.447 1003.39 999.502 937.388 1187.61L1115.62 1187.97C1115.62 1187.97 989.622 1220.44 929.977 1270.91L1781.95 1422.31C1829.6 1192.2 1685.25 938.445 1417.73 896.093Z" fill="#FBB217"/>
<path d="M1818.66 1492.55C1821.83 1475.25 1810.54 1459.02 1793.24 1455.84L879.152 1293.49C861.858 1290.32 845.623 1301.61 842.447 1318.91C839.27 1336.2 850.564 1352.43 867.858 1355.61L1781.95 1517.96C1799.24 1521.14 1815.48 1509.84 1818.66 1492.55Z" fill="url(#paint0_linear)"/>
<path d="M1781.95 1518.31L867.858 1355.96C850.564 1352.79 839.27 1336.55 842.447 1319.26C845.623 1301.96 861.858 1290.67 879.152 1293.85L1793.24 1456.2C1810.54 1459.37 1821.83 1475.61 1818.66 1492.9C1815.48 1509.84 1799.24 1521.14 1781.95 1518.31Z" fill="#FBB217"/>
<path d="M1435.73 877.741C1466.78 883.388 1496.08 862.565 1501.72 831.507C1507.37 800.449 1486.55 771.155 1455.49 765.509C1424.43 759.862 1395.14 780.685 1389.49 811.743C1384.2 842.801 1404.67 872.094 1435.73 877.741Z" fill="#FF764C"/>
<path d="M370.934 972.326H445.049" stroke="#FF764C" stroke-width="4.57058" stroke-miterlimit="10" stroke-linecap="round"/>
<path d="M409.756 1109.97H581.634" stroke="#FF764C" stroke-width="4.57058" stroke-miterlimit="10" stroke-linecap="round"/>
<path d="M529.752 1247.61H667.395" stroke="#FF764C" stroke-width="4.57058" stroke-miterlimit="10" stroke-linecap="round"/>
<path d="M1127.62 1161.5C1027.74 1057.38 712.218 753.862 372.698 692.805C368.463 692.099 364.228 693.158 361.051 696.334C344.816 712.216 335.287 732.686 335.287 754.921C335.287 804.331 381.168 843.507 441.167 843.507H608.809H611.633C612.338 843.507 612.691 843.507 613.397 843.86H613.75C614.456 843.86 615.162 844.213 615.515 844.565H615.868C616.221 844.565 616.574 844.918 616.926 845.271C617.279 845.624 617.632 845.624 617.985 845.977C617.985 845.977 618.338 845.977 618.338 846.33C621.515 848.448 623.632 851.624 623.632 855.506C623.632 855.859 623.632 855.859 623.632 856.212V856.565C623.632 856.918 623.632 857.271 623.632 857.624C623.632 857.624 623.632 857.624 623.632 857.977C622.926 864.33 617.632 869.271 610.927 869.271H533.635L522.694 869.624C509.635 869.977 497.636 876.682 491.283 887.976C484.577 899.27 480.695 912.328 480.695 925.74C480.695 961.033 506.106 990.679 543.517 1004.8C558.34 1010.44 574.222 1012.91 590.104 1012.91H755.276H756.334C763.04 1012.91 769.04 1017.85 769.393 1024.56C769.746 1031.62 764.099 1037.62 757.04 1037.62H672.337C665.984 1037.62 659.984 1038.68 654.337 1041.15C645.161 1045.38 638.102 1052.8 637.397 1063.38C634.573 1094.44 656.808 1145.62 814.921 1174.56C864.331 1183.73 914.448 1187.62 964.564 1187.62H1115.97C1129.38 1187.97 1137.15 1171.73 1127.62 1161.5Z" fill="#FFF4E2"/>
<path fill-rule="evenodd" clip-rule="evenodd" d="M1545.62 1020.08C1547.12 1015.28 1552.23 1012.6 1557.03 1014.1L1554.31 1022.8C1557.03 1014.1 1557.03 1014.11 1557.03 1014.11L1557.05 1014.11L1557.07 1014.12L1557.16 1014.15C1557.24 1014.17 1557.34 1014.2 1557.46 1014.24C1557.72 1014.33 1558.07 1014.45 1558.53 1014.6C1559.44 1014.91 1560.74 1015.37 1562.38 1015.99C1565.66 1017.22 1570.3 1019.08 1575.86 1021.63C1586.98 1026.73 1601.9 1034.65 1617.09 1045.92C1647.43 1068.45 1679.61 1105.02 1683.39 1159.81C1683.74 1164.83 1679.95 1169.18 1674.93 1169.52C1669.92 1169.87 1665.57 1166.08 1665.22 1161.07C1661.94 1113.51 1634.13 1081.26 1606.23 1060.55C1592.31 1050.21 1578.55 1042.9 1568.27 1038.19C1563.14 1035.83 1558.9 1034.14 1555.97 1033.04C1554.51 1032.49 1553.38 1032.09 1552.63 1031.83C1552.26 1031.71 1551.98 1031.61 1551.81 1031.56L1551.62 1031.5L1551.59 1031.49L1551.59 1031.49C1546.79 1029.98 1544.12 1024.88 1545.62 1020.08Z" fill="#014833"/>
<defs>
<linearGradient id="paint0_linear" x1="841.768" y1="1405.9" x2="1819.07" y2="1405.9" gradientUnits="userSpaceOnUse">
<stop stop-color="#FBB217"/>
<stop offset="0.6781" stop-color="#FF764C"/>
<stop offset="1" stop-color="#FCA820"/>
</linearGradient>
</defs>
</svg>
