<svg xmlns="http://www.w3.org/2000/svg" width="305.373" height="66.851" viewBox="0 0 305.373 66.851">
  <g id="Groupe_379" data-name="Groupe 379" transform="translate(173.3)">
    <g id="Groupe_175" data-name="Groupe 175" transform="translate(-173.3)">
      <path id="Tracé_149" data-name="Tracé 149" d="M-16.842,66.851H-99.595A13.365,13.365,0,0,1-112.9,53.546V13.305A13.365,13.365,0,0,1-99.595,0h82.753A13.365,13.365,0,0,1-3.537,13.305V53.221A13.649,13.649,0,0,1-16.842,66.851Z" transform="translate(308.91)" fill="#fbaf0e"/>
      <g id="Groupe_174" data-name="Groupe 174" transform="translate(0 6.166)">
        <path id="Tracé_150" data-name="Tracé 150" d="M-156.425,2.6c11.683,0,15.252,6.166,15.252,13.63V36.675c0,7.788-3.57,13.63-15.252,13.63H-173.3V2.6ZM-166.81,45.112h10.385c7.139,0,9.411-2.921,9.411-8.762V16.879c0-5.517-2.272-8.762-9.411-8.762H-166.81Z" transform="translate(173.3 -0.328)" fill="#fff"/>
        <path id="Tracé_151" data-name="Tracé 151" d="M-146.1,37.554a45.388,45.388,0,0,0,11.034-1.623l.649,4.868a36.424,36.424,0,0,1-12.332,1.947c-10.385,0-13.954-4.868-13.954-12.981V19.381c0-7.139,3.245-12.981,13.63-12.981s13.305,5.841,13.305,13.305v7.464h-20.769V30.09C-154.534,35.282-152.912,37.554-146.1,37.554Zm-8.438-15.577h14.928V19.056c0-4.868-1.623-7.788-7.464-7.788s-7.788,2.6-7.788,7.788v2.921Z" transform="translate(201.59 8.203)" fill="#fff"/>
        <path id="Tracé_152" data-name="Tracé 152" d="M-149.4,52.2V2.874l6.166-.974V52.2Z" transform="translate(226.96 -1.9)" fill="#fff"/>
        <path id="Tracé_153" data-name="Tracé 153" d="M-144,10.962V2.2h6.166v8.762Zm0,40.565V16.479h6.166V51.527Z" transform="translate(239.084 -1.226)" fill="#fff"/>
        <path id="Tracé_154" data-name="Tracé 154" d="M-114.663,6.6h5.841L-120.5,41.648h-8.113L-140.3,6.6h5.841l9.736,30.18Z" transform="translate(247.392 8.652)" fill="#fff"/>
        <path id="Tracé_155" data-name="Tracé 155" d="M-112.474,11.917a64.327,64.327,0,0,0-10.06,6.166V42.422H-128.7V7.049h5.192l.325,4.868A40.1,40.1,0,0,1-113.448,6.4Z" transform="translate(273.436 8.203)" fill="#fff"/>
        <path id="Tracé_156" data-name="Tracé 156" d="M-107.8,37.554a45.389,45.389,0,0,0,11.034-1.623l.649,4.868a36.425,36.425,0,0,1-12.332,1.947c-10.385,0-13.954-4.868-13.954-12.981V19.381c0-7.139,3.245-12.981,13.63-12.981s13.305,5.841,13.305,13.305v7.464h-20.769V30.09C-116.234,35.282-114.612,37.554-107.8,37.554Zm-8.438-15.577h14.928V19.056c0-4.868-1.623-7.788-7.464-7.788s-7.788,2.6-7.788,7.788v2.921Z" transform="translate(287.581 8.203)" fill="#fff"/>
        <path id="Tracé_157" data-name="Tracé 157" d="M-97.1,37.554a45.389,45.389,0,0,0,11.034-1.623l.649,4.868a36.424,36.424,0,0,1-12.332,1.947c-10.385,0-13.954-4.868-13.954-12.981V19.381c0-7.139,3.245-12.981,13.63-12.981s13.305,5.841,13.305,13.305v7.464h-20.769V30.09C-105.534,35.282-104.236,37.554-97.1,37.554Zm-8.438-15.577h14.928V19.056c0-4.868-1.623-7.788-7.464-7.788s-7.789,2.6-7.789,7.788v2.921Z" transform="translate(311.604 8.203)" fill="#fff"/>
        <path id="Tracé_158" data-name="Tracé 158" d="M-79.308,47.735a27.645,27.645,0,0,1-7.464,1.3c-5.841,0-8.762-2.272-8.762-8.113V18.2H-101.7V13.336h6.166V4.574l6.166-.974v9.411h10.06l-.649,5.517h-9.411V40.271c0,2.6.325,3.894,3.57,3.894a19.773,19.773,0,0,0,5.517-.974Z" transform="translate(334.056 1.917)" fill="#fff"/>
        <path id="Tracé_159" data-name="Tracé 159" d="M-92.3,10.962V2.2h6.166v8.762Zm0,40.565V16.479h6.166V51.527Z" transform="translate(355.161 -1.226)" fill="#fff"/>
        <path id="Tracé_160" data-name="Tracé 160" d="M-87.5,30.09V19.056C-87.5,10.943-84.579,6.4-73.546,6.4a50.5,50.5,0,0,1,8.438.974l-.649,5.192a32.006,32.006,0,0,0-7.789-.974c-6.166,0-8.113,1.623-8.113,7.139V30.09c0,5.517,1.947,7.139,8.113,7.139a68.66,68.66,0,0,0,7.789-.649l.649,5.192a30.106,30.106,0,0,1-8.438.974C-84.9,42.746-87.5,38.2-87.5,30.09Z" transform="translate(365.938 8.203)" fill="#fff"/>
      </g>
    </g>
    <rect id="Rectangle_7" data-name="Rectangle 7" width="6.166" height="12.007" transform="translate(-84.418 30.012) rotate(-90)" fill="#fff"/>
    <rect id="Rectangle_8" data-name="Rectangle 8" width="6.166" height="11.683" transform="translate(89.686 29.848) rotate(-90)" fill="#fff"/>
  </g>
</svg>
