<svg width="423" height="252" viewBox="0 0 423 252" fill="none" xmlns="http://www.w3.org/2000/svg">
<path d="M319.214 143.277C324.44 143.377 327.254 137.348 323.636 133.63C295.298 104.086 205.361 17.666 108.691 0.281436C107.485 0.0804591 106.279 0.381925 105.375 1.28632C100.752 5.80831 98.0391 11.6367 98.0391 17.9674C98.0391 32.0358 111.203 44.195 128.286 44.195L175.817 42.5871C177.727 42.4867 179.435 43.994 179.535 46.0037C179.636 47.913 178.128 49.6213 176.119 49.7218L152.906 50.6262C148.786 50.8272 144.666 52.435 142.656 55.9521C140.747 59.1678 139.742 62.8858 139.742 66.6039C139.742 78.562 149.992 88.6109 163.96 91.4246C165.969 91.8266 167.979 91.927 169.989 91.8265L217.62 90.5202C219.63 90.5202 221.238 92.0275 221.238 93.9368C221.339 95.8461 219.731 97.5544 217.821 97.5544L194.508 98.2578C189.584 98.3583 184.56 100.871 184.057 105.895C183.052 117.049 193.403 137.448 278.517 142.573L304.041 143.176L319.214 143.277Z" fill="#FFF4E2"/>
<path d="M308.663 74.1405C244.351 63.9912 190.69 103.584 171.898 157.144L222.645 157.245C222.645 157.245 186.771 166.49 169.788 180.859L412.368 223.969C425.934 158.45 384.834 86.1992 308.663 74.1405Z" fill="#FBB217"/>
<path d="M422.818 243.966C423.722 239.042 420.506 234.42 415.582 233.515L155.317 187.291C150.393 186.386 145.771 189.602 144.866 194.526C143.962 199.45 147.177 204.072 152.101 204.977L412.367 251.201C417.291 252.106 421.913 248.89 422.818 243.966Z" fill="url(#paint0_linear)"/>
<path d="M412.367 251.302L152.101 205.077C147.177 204.173 143.962 199.55 144.866 194.626C145.771 189.702 150.393 186.487 155.317 187.391L415.582 233.616C420.506 234.52 423.722 239.143 422.818 244.067C421.913 248.89 417.291 252.106 412.367 251.302Z" fill="#FBB217"/>
<path d="M313.788 68.9151C322.631 70.5229 330.971 64.5941 332.579 55.7511C334.187 46.9081 328.258 38.5675 319.415 36.9597C310.572 35.3519 302.232 41.2807 300.624 50.1237C299.117 58.9667 304.945 67.3072 313.788 68.9151Z" fill="#FF764C"/>
<path d="M10.6143 95.8462H31.7169" stroke="#FF764C" stroke-width="4.57058" stroke-miterlimit="10" stroke-linecap="round"/>
<path d="M21.668 135.037H70.6059" stroke="#FF764C" stroke-width="4.57058" stroke-miterlimit="10" stroke-linecap="round"/>
<path d="M55.834 174.227H95.0245" stroke="#FF764C" stroke-width="4.57058" stroke-miterlimit="10" stroke-linecap="round"/>
<path d="M226.062 149.708C197.623 120.064 107.787 33.6437 11.1166 16.2592C9.91077 16.0582 8.70491 16.3597 7.80051 17.2641C3.17804 21.7861 0.464844 27.6144 0.464844 33.9452C0.464844 48.0136 13.5284 59.1679 30.6114 59.1679H78.3435H79.1474C79.3484 59.1679 79.4489 59.1679 79.6499 59.2683H79.7503C79.9513 59.2683 80.1523 59.3688 80.2528 59.4693H80.3533C80.4538 59.4693 80.5543 59.5698 80.6548 59.6703C80.7552 59.7708 80.8557 59.7708 80.9562 59.8713C80.9562 59.8713 81.0567 59.8713 81.0567 59.9718C81.9611 60.5747 82.564 61.4791 82.564 62.5845C82.564 62.685 82.564 62.685 82.564 62.7854V62.8859C82.564 62.9864 82.564 63.0869 82.564 63.1874C82.564 63.1874 82.564 63.1874 82.564 63.2879C82.3631 65.0967 80.8557 66.5035 78.9464 66.5035H56.9394L53.8243 66.604C50.1062 66.7045 46.6896 68.6138 44.8808 71.8294C42.9715 75.0451 41.8661 78.7631 41.8661 82.5817C41.8661 92.6305 49.1013 101.072 59.7531 105.091C63.9736 106.699 68.4956 107.402 73.0176 107.402H120.046H120.348C122.257 107.402 123.965 108.809 124.066 110.718C124.166 112.728 122.558 114.437 120.549 114.437H96.4315C94.6227 114.437 92.9144 114.738 91.3065 115.441C88.6938 116.647 86.6841 118.758 86.4831 121.772C85.6792 130.615 92.01 145.186 137.029 153.426C151.097 156.039 165.367 157.144 179.636 157.144H222.746C226.564 157.245 228.775 152.622 226.062 149.708Z" fill="#FFF4E2"/>
<path fill-rule="evenodd" clip-rule="evenodd" d="M345.078 109.442C345.505 108.076 346.959 107.314 348.326 107.741L347.553 110.216C348.326 107.741 348.327 107.741 348.328 107.742L348.331 107.743L348.34 107.745L348.365 107.753C348.386 107.76 348.414 107.769 348.45 107.781C348.522 107.804 348.624 107.838 348.753 107.882C349.012 107.971 349.383 108.102 349.85 108.277C350.783 108.628 352.104 109.157 353.689 109.885C356.854 111.336 361.102 113.59 365.428 116.801C374.065 123.214 383.229 133.628 384.305 149.228C384.404 150.657 383.326 151.895 381.897 151.993C380.468 152.092 379.23 151.013 379.132 149.585C378.198 136.043 370.279 126.862 362.336 120.965C358.371 118.021 354.455 115.941 351.527 114.598C350.066 113.928 348.859 113.445 348.027 113.132C347.61 112.976 347.288 112.862 347.075 112.789C346.969 112.753 346.889 112.726 346.839 112.71L346.787 112.693L346.779 112.691L346.778 112.69C345.412 112.262 344.651 110.809 345.078 109.442Z" fill="#014833"/>
<defs>
<linearGradient id="paint0_linear" x1="144.673" y1="219.294" x2="422.936" y2="219.294" gradientUnits="userSpaceOnUse">
<stop stop-color="#FBB217"/>
<stop offset="0.6781" stop-color="#FF764C"/>
<stop offset="1" stop-color="#FCA820"/>
</linearGradient>
</defs>
</svg>
