<svg width="72" height="72" viewBox="0 0 72 72" fill="none" xmlns="http://www.w3.org/2000/svg">
<path d="M61.59 17.04L61.56 17.01C51.96 10.53 39.51 10.23 29.61 16.2V16.17C23.64 19.59 17.07 21.87 10.29 22.86L9.83997 22.92H9.80997C7.52997 23.28 5.87997 25.23 5.87997 27.51V27.48C5.84997 28.77 6.38997 30.03 7.34997 30.9L7.31997 30.87C22.71 44.85 45.96 45.6 62.25 32.64V32.61C64.53 30.72 65.85 27.93 65.82 24.99L65.79 24.96C65.76 21.63 64.11 18.57 61.38 16.71L61.59 17.04Z" stroke="#90471C" stroke-width="3" stroke-linecap="round" stroke-linejoin="round"/>
<path d="M46.8 23.7L43.2 32.7" stroke="#90471C" stroke-width="3" stroke-linecap="round" stroke-linejoin="round"/>
<path d="M34.8 23.7L31.2 32.7" stroke="#90471C" stroke-width="3" stroke-linecap="round" stroke-linejoin="round"/>
<path d="M5.99997 27.66V42.06L5.96997 42.03C5.96997 45.9 7.85997 49.56 11.01 51.81C25.86 62.61 46.02 62.61 60.9 51.78V51.75C64.05 49.47 65.91 45.81 65.94 41.94V25.11" stroke="#90471C" stroke-width="3" stroke-linecap="round" stroke-linejoin="round"/>
</svg>
