<svg width="481" height="417" viewBox="0 0 481 417" fill="none" xmlns="http://www.w3.org/2000/svg">
<path d="M162.048 292.02C180.133 445.367 398.477 383.284 366.977 257.424C327.602 100.099 135.468 148.264 162.048 292.02Z" stroke="#FBB217" stroke-width="42.9372"/>
<path d="M185.699 195.882C161.492 174.672 85.4731 113.276 8.37919 105.884C7.41851 105.804 6.48911 106.114 5.8343 106.873C2.4812 110.673 0.7107 115.367 1.10487 120.28C1.98079 131.198 12.9471 139.029 26.3795 137.952L63.9111 134.94L64.5432 134.89C64.7013 134.877 64.7803 134.871 64.9446 134.936L65.0236 134.93C65.1816 134.917 65.3459 134.982 65.4312 135.054L65.5102 135.048C65.5892 135.041 65.6745 135.113 65.7597 135.185C65.845 135.256 65.924 135.25 66.0093 135.321C66.0093 135.321 66.0883 135.315 66.0946 135.393C66.8432 135.804 67.3736 136.468 67.4424 137.326C67.4487 137.404 67.4487 137.404 67.455 137.482L67.4612 137.559C67.4675 137.637 67.4737 137.715 67.48 137.793C67.48 137.793 67.48 137.793 67.4862 137.871C67.4408 139.288 66.3432 140.475 64.842 140.595L47.5379 141.983L45.0947 142.258C42.1774 142.57 39.6098 144.268 38.3878 146.877C37.0867 149.493 36.4491 152.448 36.6868 155.411C37.3125 163.209 43.5271 169.303 52.1528 171.751C55.5715 172.732 59.1709 172.993 62.7266 172.707L99.7051 169.741L99.9422 169.721C101.443 169.601 102.874 170.585 103.072 172.06C103.276 173.614 102.118 175.041 100.538 175.167L81.5748 176.689C80.1525 176.803 78.8281 177.145 77.6076 177.792C75.6283 178.893 74.1795 180.657 74.2091 183.009C74.1276 189.922 80.0127 200.83 115.924 204.384C127.149 205.524 138.437 205.482 149.657 204.582L183.554 201.862C186.563 201.699 188.014 197.973 185.699 195.882Z" fill="#FFF4E2"/>
<path d="M315.149 167.097C326.315 136.911 363.867 46.6985 428.11 3.44482C428.916 2.91657 429.881 2.74598 430.819 3.10087C435.578 4.84322 439.372 8.12533 441.368 12.6318C445.803 22.6461 439.897 34.7588 427.576 40.2156L393.149 55.4624L392.569 55.7192C392.424 55.7834 392.352 55.8155 392.239 55.9512L392.166 55.9833C392.021 56.0475 391.908 56.1832 391.867 56.2869L391.795 56.319C391.722 56.3511 391.681 56.4547 391.64 56.5583C391.6 56.662 391.527 56.6941 391.486 56.7977C391.486 56.7977 391.414 56.8298 391.446 56.9013C390.983 57.6194 390.834 58.4557 391.182 59.2426C391.214 59.3141 391.214 59.3141 391.245 59.3857L391.277 59.4572C391.309 59.5287 391.34 59.6002 391.372 59.6718C391.372 59.6718 391.372 59.6718 391.404 59.7433C392.119 60.9667 393.65 61.4866 395.027 60.8767L410.899 53.8471L413.178 52.9236C415.891 51.8075 418.958 52.0752 421.276 53.7864C423.667 55.4655 425.636 57.7591 426.84 60.4772C430.008 67.6303 427.45 75.95 421.035 82.2137C418.498 84.7063 415.458 86.6515 412.196 88.0959L378.277 103.118L378.059 103.214C376.682 103.824 375.893 105.371 376.423 106.763C376.984 108.225 378.682 108.928 380.132 108.286L397.526 100.582C398.831 100.004 400.158 99.6732 401.54 99.6603C403.804 99.6841 405.919 100.544 407.014 102.626C410.382 108.664 410.409 121.058 380.537 141.304C371.213 147.657 361.27 153.002 350.978 157.56L319.885 171.331C317.163 172.622 314.111 170.038 315.149 167.097Z" fill="#FFF4E2"/>
</svg>
