<svg width="72" height="72" viewBox="0 0 72 72" fill="none" xmlns="http://www.w3.org/2000/svg">
<path d="M14.55 8.99998H20.97H20.94C35.85 8.96998 47.94 21.06 47.94 35.97V45.99C47.94 47.07 47.04 47.94 45.96 47.94H35.91L35.88 47.937C20.94 47.907 8.88 35.847 8.88 20.937V14.46V14.43C8.88 11.34 11.37 8.84998 14.43 8.84998L14.55 8.99998Z" stroke="#90471C" stroke-width="3" stroke-linecap="round" stroke-linejoin="round"/>
<path d="M18.42 18.3899V18.3869C18.3 18.3869 18.24 18.4469 18.24 18.5369C18.24 18.6269 18.3 18.6869 18.39 18.6869C18.48 18.6569 18.54 18.5969 18.54 18.5069V18.4769C18.54 18.3569 18.45 18.2969 18.36 18.2969C18.33 18.2669 18.33 18.2669 18.33 18.2969" stroke="#90471C" stroke-width="3" stroke-linecap="round" stroke-linejoin="round"/>
<path d="M28.5 19.479C28.5 24.429 24.45 28.479 19.5 28.479" stroke="#90471C" stroke-width="3" stroke-linecap="round" stroke-linejoin="round"/>
<path d="M36.84 14.16H46.08C47.34 14.16 48.57 14.67 49.5 15.57C51.39 17.46 51.39 20.52 49.5 22.41C49.47 22.41 49.47 22.41 49.47 22.41L45.96 25.89" stroke="#90471C" stroke-width="3" stroke-linecap="round" stroke-linejoin="round"/>
<path d="M14.16 36.84V46.08L14.157 46.05C14.157 47.31 14.667 48.54 15.567 49.47L15.537 49.44C17.427 51.33 20.487 51.33 22.377 49.44C22.377 49.41 22.377 49.41 22.377 49.41L25.857 45.9" stroke="#90471C" stroke-width="3" stroke-linecap="round" stroke-linejoin="round"/>
<path d="M54.6 54.6H56.22C58.74 54.6 61.17 53.58 62.94 51.78C61.32 46.98 56.43 44.13 51.48 45.12H51.45C48.24 45.75 45.72 48.27 45.09 51.48H45.06C44.07 56.4 46.89 61.32 51.69 62.91V62.88C53.46 61.08 54.48 58.65 54.48 56.13L54.6 54.6Z" stroke="#90471C" stroke-width="3" stroke-linecap="round" stroke-linejoin="round"/>
</svg>
