<svg width="26" height="26" viewBox="0 0 26 26" fill="none" xmlns="http://www.w3.org/2000/svg">
<path d="M7.60999 24.7717C7.29615 24.9446 6.94268 25.0212 6.58967 24.9929C6.23667 24.9646 5.89823 24.8325 5.61274 24.6116C5.32724 24.3907 5.10611 24.0897 4.97441 23.743C4.84272 23.3962 4.80572 23.0174 4.86762 22.6495L5.88953 16.4683L1.58712 12.1173C1.3294 11.8579 1.14616 11.5272 1.05841 11.163C0.970668 10.7987 0.981969 10.4158 1.09102 10.058C1.20007 9.70024 1.40246 9.38215 1.67497 9.14021C1.94749 8.89827 2.2791 8.74227 2.63178 8.69011L8.60538 7.78898L11.3023 2.11163C11.459 1.77784 11.701 1.4969 12.001 1.30049C12.301 1.10407 12.647 1 13 1C13.353 1 13.699 1.10407 13.999 1.30049C14.299 1.4969 14.541 1.77784 14.6977 2.11163L17.3946 7.78898L23.3682 8.69011C23.7209 8.74227 24.0525 8.89827 24.325 9.14021C24.5975 9.38215 24.7999 9.70024 24.909 10.058C25.018 10.4158 25.0293 10.7987 24.9416 11.163C24.8538 11.5272 24.6706 11.8579 24.4129 12.1173L20.1105 16.4683L21.1324 22.6509C21.1943 23.0187 21.1573 23.3975 21.0256 23.7443C20.8939 24.0911 20.6728 24.392 20.3873 24.6129C20.1018 24.8339 19.7633 24.966 19.4103 24.9943C19.0573 25.0226 18.7039 24.9459 18.39 24.773L13 21.8337L7.60999 24.7717Z" stroke="#FBB217" stroke-width="1.5" stroke-linecap="round" stroke-linejoin="round"/>
</svg>
